<?xml version="1.0" encoding="UTF-8" standalone="no"?>
<svg
   width="10644.709pt"
   height="1500pt"
   viewBox="0 0 10644.709 1500"
   overflow="visible"
   version="1.1"
   id="svg204"
   sodipodi:docname="MediaKit-Save&amp;Raid FTF Banner Transparent.svg"
   inkscape:version="1.3.2 (091e20e, 2023-11-25, custom)"
   inkscape:export-filename="MediaKit-Save&amp;Raid FTF Banner Transparent.png"
   inkscape:export-xdpi="72"
   inkscape:export-ydpi="72"
   xmlns:inkscape="http://www.inkscape.org/namespaces/inkscape"
   xmlns:sodipodi="http://sodipodi.sourceforge.net/DTD/sodipodi-0.dtd"
   xmlns:xlink="http://www.w3.org/1999/xlink"
   xmlns="http://www.w3.org/2000/svg"
   xmlns:svg="http://www.w3.org/2000/svg">
  <defs
     id="defs208">
    <linearGradient
       inkscape:collect="always"
       id="linearGradient11153">
      <stop
         style="stop-color:#f3f3f3;stop-opacity:1;"
         offset="0"
         id="stop11149" />
      <stop
         style="stop-color:#6e6e6e;stop-opacity:1;"
         offset="1"
         id="stop11151" />
    </linearGradient>
    <linearGradient
       inkscape:collect="always"
       id="linearGradient11147">
      <stop
         style="stop-color:#f3f3f3;stop-opacity:1;"
         offset="0"
         id="stop11143" />
      <stop
         style="stop-color:#6d6d6d;stop-opacity:1;"
         offset="1"
         id="stop11145" />
    </linearGradient>
    <linearGradient
       inkscape:collect="always"
       id="linearGradient11141">
      <stop
         style="stop-color:#f3f3f3;stop-opacity:1;"
         offset="0"
         id="stop11137" />
      <stop
         style="stop-color:#6e6e6e;stop-opacity:1;"
         offset="1"
         id="stop11139" />
    </linearGradient>
    <linearGradient
       inkscape:collect="always"
       xlink:href="#linearGradient11153"
       id="linearGradient9657"
       x1="257.3244"
       y1="471.8017"
       x2="257.3244"
       y2="488.7811"
       gradientUnits="userSpaceOnUse"
       gradientTransform="matrix(3.7309616,0,0,3.7309616,56.039379,-324.70263)" />
    <linearGradient
       inkscape:collect="always"
       xlink:href="#linearGradient11147"
       id="linearGradient9659"
       x1="257.3244"
       y1="471.8017"
       x2="257.3244"
       y2="488.7811"
       gradientUnits="userSpaceOnUse"
       gradientTransform="matrix(3.7309616,0,0,3.7309616,56.039379,-324.70263)" />
    <linearGradient
       inkscape:collect="always"
       xlink:href="#linearGradient11141"
       id="linearGradient9661"
       x1="257.3244"
       y1="471.8017"
       x2="257.3244"
       y2="488.7811"
       gradientUnits="userSpaceOnUse"
       gradientTransform="matrix(3.7309616,0,0,3.7309616,56.039379,-324.70263)" />
    <linearGradient
       inkscape:collect="always"
       xlink:href="#linearGradient11141"
       id="linearGradient611"
       gradientUnits="userSpaceOnUse"
       x1="257.3244"
       y1="471.8017"
       x2="257.3244"
       y2="488.7811"
       gradientTransform="matrix(7.4891868,0,0,3.7309616,-291.87255,-324.31572)" />
    <linearGradient
       inkscape:collect="always"
       xlink:href="#linearGradient11141"
       id="linearGradient613"
       gradientUnits="userSpaceOnUse"
       x1="257.3244"
       y1="471.8017"
       x2="257.3244"
       y2="488.7811"
       gradientTransform="matrix(8.6976412,0,0,3.7309616,-2084.6586,-324.31572)" />
    <linearGradient
       inkscape:collect="always"
       xlink:href="#linearGradient11153"
       id="linearGradient886"
       gradientUnits="userSpaceOnUse"
       x1="257.3244"
       y1="471.8017"
       x2="257.3244"
       y2="488.7811"
       gradientTransform="matrix(3.7309616,0,0,3.7309616,56.039379,-324.70263)" />
    <linearGradient
       inkscape:collect="always"
       xlink:href="#linearGradient11153"
       id="linearGradient888"
       gradientUnits="userSpaceOnUse"
       x1="257.3244"
       y1="471.8017"
       x2="257.3244"
       y2="488.7811"
       gradientTransform="matrix(3.7309616,0,0,3.7309616,56.039379,-324.70263)" />
    <linearGradient
       inkscape:collect="always"
       xlink:href="#linearGradient11153"
       id="linearGradient890"
       gradientUnits="userSpaceOnUse"
       x1="257.3244"
       y1="471.8017"
       x2="257.3244"
       y2="488.7811"
       gradientTransform="matrix(3.7309616,0,0,3.7309616,56.039379,-324.70263)" />
    <linearGradient
       inkscape:collect="always"
       xlink:href="#linearGradient11153"
       id="linearGradient892"
       gradientUnits="userSpaceOnUse"
       x1="257.3244"
       y1="471.8017"
       x2="257.3244"
       y2="488.7811"
       gradientTransform="matrix(3.7309616,0,0,3.7309616,56.039379,-324.70263)" />
    <linearGradient
       inkscape:collect="always"
       xlink:href="#linearGradient11153"
       id="linearGradient894"
       gradientUnits="userSpaceOnUse"
       x1="257.3244"
       y1="471.8017"
       x2="257.3244"
       y2="488.7811"
       gradientTransform="matrix(3.7309616,0,0,3.7309616,56.039379,-324.70263)" />
    <linearGradient
       inkscape:collect="always"
       xlink:href="#linearGradient11153"
       id="linearGradient896"
       gradientUnits="userSpaceOnUse"
       x1="257.3244"
       y1="471.8017"
       x2="257.3244"
       y2="488.7811"
       gradientTransform="matrix(3.7309616,0,0,3.7309616,56.039379,-324.70263)" />
    <linearGradient
       inkscape:collect="always"
       xlink:href="#linearGradient11153"
       id="linearGradient898"
       gradientUnits="userSpaceOnUse"
       x1="257.3244"
       y1="471.8017"
       x2="257.3244"
       y2="488.7811"
       gradientTransform="matrix(3.7309616,0,0,3.7309616,56.039379,-324.70263)" />
    <linearGradient
       inkscape:collect="always"
       xlink:href="#linearGradient11153"
       id="linearGradient900"
       gradientUnits="userSpaceOnUse"
       x1="257.3244"
       y1="471.8017"
       x2="257.3244"
       y2="488.7811"
       gradientTransform="matrix(3.7309616,0,0,3.7309616,56.039379,-324.70263)" />
    <linearGradient
       inkscape:collect="always"
       xlink:href="#linearGradient11153"
       id="linearGradient902"
       gradientUnits="userSpaceOnUse"
       x1="257.3244"
       y1="471.8017"
       x2="257.3244"
       y2="488.7811"
       gradientTransform="matrix(3.7309616,0,0,3.7309616,56.039379,-324.70263)" />
    <linearGradient
       inkscape:collect="always"
       xlink:href="#linearGradient11153"
       id="linearGradient904"
       gradientUnits="userSpaceOnUse"
       x1="257.3244"
       y1="471.8017"
       x2="257.3244"
       y2="488.7811"
       gradientTransform="matrix(3.7309616,0,0,3.7309616,56.039379,-324.70263)" />
    <linearGradient
       inkscape:collect="always"
       xlink:href="#linearGradient11153"
       id="linearGradient906"
       gradientUnits="userSpaceOnUse"
       x1="257.3244"
       y1="471.8017"
       x2="257.3244"
       y2="488.7811"
       gradientTransform="matrix(3.7309616,0,0,3.7309616,56.039379,-324.70263)" />
    <linearGradient
       inkscape:collect="always"
       xlink:href="#linearGradient11153"
       id="linearGradient908"
       gradientUnits="userSpaceOnUse"
       x1="257.3244"
       y1="471.8017"
       x2="257.3244"
       y2="488.7811"
       gradientTransform="matrix(3.7309616,0,0,3.7309616,56.039379,-324.70263)" />
    <linearGradient
       inkscape:collect="always"
       xlink:href="#linearGradient11153"
       id="linearGradient910"
       gradientUnits="userSpaceOnUse"
       x1="257.3244"
       y1="471.8017"
       x2="257.3244"
       y2="488.7811"
       gradientTransform="matrix(3.7309616,0,0,3.7309616,56.039379,-324.70263)" />
  </defs>
  <sodipodi:namedview
     id="namedview206"
     pagecolor="#ffffff"
     bordercolor="#999999"
     borderopacity="1"
     inkscape:showpageshadow="0"
     inkscape:pageopacity="0"
     inkscape:pagecheckerboard="true"
     inkscape:deskcolor="#d1d1d1"
     inkscape:document-units="px"
     showgrid="false"
     inkscape:zoom="0.37472976"
     inkscape:cx="1810.6382"
     inkscape:cy="727.19072"
     inkscape:window-width="1920"
     inkscape:window-height="1017"
     inkscape:window-x="1072"
     inkscape:window-y="295"
     inkscape:window-maximized="1"
     inkscape:current-layer="svg204" />
  <g
     id="g385"
     transform="matrix(3.9322659,0,0,3.9322659,2277.8141,-4605.6325)">
    <path
       id="path178"
       style="font-variation-settings:normal;opacity:1;fill:url(#linearGradient886);fill-opacity:1;stroke:none;stroke-width:0.895431;stroke-linecap:butt;stroke-linejoin:miter;stroke-miterlimit:4;stroke-dasharray:none;stroke-dashoffset:0;stroke-opacity:1;stop-color:#000000;stop-opacity:1"
       d="m 728.13712,1434.4494 c -7.08696,0 -13.00308,2.9012 -17.75669,8.7062 -4.75325,5.8046 -7.13219,14.1073 -7.13219,24.9107 0,8.5559 2.11602,15.8606 6.35066,21.9103 4.66706,6.6837 10.83691,10.0233 18.49994,10.0233 7.60556,0 13.75497,-3.2559 18.45076,-9.7664 4.26337,-5.9058 6.39442,-13.5517 6.39442,-22.9433 0,-6.8276 -1.10261,-12.7122 -3.30649,-17.6528 -2.20388,-4.9405 -5.19469,-8.7095 -8.96856,-11.3022 -3.77387,-2.5926 -7.95135,-3.8858 -12.53185,-3.8858 z m 0.0437,7.1704 c 3.22653,0 6.20227,0.9874 8.92476,2.9622 2.72214,1.9752 4.76171,4.61 6.11568,7.8974 1.75728,4.2958 2.63424,9.1647 2.63424,14.6141 0,8.448 -1.70747,14.8513 -5.12097,19.205 -3.41383,4.3536 -7.63776,6.531 -12.67944,6.531 -4.92599,0 -9.11112,-2.1551 -12.55372,-6.4654 -3.44256,-4.3104 -5.1647,-10.3747 -5.1647,-18.1885 0,-9.0535 1.67718,-15.7435 5.03352,-20.0685 3.356,-4.3249 7.62497,-6.4873 12.81063,-6.4873 z" />
    <path
       id="path148"
       style="font-variation-settings:normal;opacity:1;fill:#e0922f;fill-opacity:1;stroke:none;stroke-width:3.73096;stroke-linecap:butt;stroke-linejoin:miter;stroke-miterlimit:4;stroke-dasharray:none;stroke-dashoffset:0;stroke-opacity:1;stop-color:#000000;stop-opacity:1"
       d="m 286.49733,1274.0862 -45.82087,117.6509 h 25.19492 l 9.7118,-26.7252 h 47.0287 l 10.26925,26.7252 h 25.84529 l -47.11068,-117.6509 z m 12.28048,27.4465 16.21,43.6567 h -32.10302 z" />
    <path
       id="path106"
       style="font-variation-settings:normal;opacity:1;fill:#e0922f;fill-opacity:1;stroke:none;stroke-width:3.73096;stroke-linecap:butt;stroke-linejoin:miter;stroke-miterlimit:4;stroke-dasharray:none;stroke-dashoffset:0;stroke-opacity:1;stop-color:#000000;stop-opacity:1"
       d="m 1832.4653,1274.0862 v 117.6509 h 44.7005 c 8.7741,0 15.7818,-0.8279 21.0249,-2.4867 7.0087,-2.2471 12.5713,-5.3767 16.691,-9.3893 5.4573,-5.2965 9.6603,-12.2241 12.6029,-20.7845 2.4076,-7.0086 3.6071,-15.3581 3.6071,-25.0418 0,-11.0213 -1.2795,-20.2906 -3.8475,-27.8074 -2.5681,-7.5167 -6.3148,-13.868 -11.2367,-19.0574 -4.9222,-5.1898 -10.8329,-8.7992 -17.7348,-10.8322 -5.136,-1.498 -12.6004,-2.2516 -22.3912,-2.2516 z m 23.7521,19.9045 h 10.6737 c 9.6837,0 16.1884,0.377 19.5056,1.1258 4.4406,0.9634 8.1014,2.8079 10.9907,5.5363 2.8888,2.7285 5.1391,6.5262 6.7441,11.3951 1.6051,4.8686 2.4047,11.8477 2.4047,20.943 0,9.0949 -0.7996,16.2796 -2.4047,21.5496 -1.605,5.2699 -3.6783,9.0563 -6.2195,11.3568 -2.5411,2.3005 -5.7393,3.9285 -9.5916,4.8914 -2.9425,0.7492 -7.7341,1.1259 -14.3681,1.1259 h -17.7349 z" />
    <path
       d="m 583.68055,1498.9209 h 32.45261 v -7.4757 h -25.58167 v -55.8738 h -6.87094 z"
       stroke="#000000"
       stroke-width="0.24"
       fill-opacity="0"
       id="path110"
       style="font-variation-settings:normal;opacity:1;fill:url(#linearGradient888);fill-opacity:1;stroke:none;stroke-width:0.895431;stroke-linecap:butt;stroke-linejoin:miter;stroke-miterlimit:4;stroke-dasharray:none;stroke-dashoffset:0;stroke-opacity:1;stop-color:#000000;stop-opacity:1" />
    <path
       d="m 0,1353.457 c 1.5515316,13.1614 6.3131266,23.1794 14.284785,30.0544 7.971658,6.8751 19.394139,10.3124 34.267431,10.3124 10.218693,0 18.752112,-1.4312 25.600254,-4.2936 6.848143,-2.8624 12.144728,-7.2358 15.88983,-13.121 3.745065,-5.8853 5.617597,-12.1984 5.617597,-18.9395 0,-7.4366 -1.564915,-13.683 -4.694706,-18.7388 -3.129829,-5.0558 -7.463416,-9.0416 -13.00076,-11.9573 -5.537381,-2.9158 -14.084156,-5.7383 -25.640399,-8.4667 -11.556206,-2.7285 -18.832365,-5.3498 -21.828439,-7.8645 -2.35405,-1.9797 -3.531057,-4.3604 -3.531057,-7.1426 0,-3.0493 1.25726,-5.4837 3.771816,-7.3029 3.905571,-2.8356 9.309197,-4.2533 16.210842,-4.2533 6.687636,0 11.703355,1.3241 15.047154,3.9727 3.343837,2.6482 5.523987,6.9952 6.540525,13.0408 l 23.754473,-1.0435 c -0.374514,-10.8071 -4.293478,-19.4473 -11.756857,-25.9213 -7.463415,-6.4735 -18.578249,-9.7102 -33.344536,-9.7102 -9.041687,0 -16.759219,1.3641 -23.152602,4.0929 -6.393376,2.7285 -11.288722,6.7008 -14.6860388,11.9174 -3.3973166,5.2163 -5.0959787,10.8206 -5.0959787,16.8125 0,9.3091 3.6113246,17.2005 10.8339665,23.6741 5.136105,4.6014 14.070781,8.4801 26.80403,11.6365 l 19.019622,5.1364 c 4.066076,1.4442 6.915001,3.1429 8.546812,5.0957 1.631773,1.9528 2.44766,4.3205 2.44766,7.1023 0,4.3335 -1.939391,8.1189 -5.818248,11.3555 -3.87882,3.237 -9.643566,4.8555 -17.294201,4.8555 -7.222657,0 -12.960652,-1.8192 -17.213985,-5.4573 -4.253334,-3.638 -7.075504,-9.3359 -8.46653,-17.0934 z"
       stroke="#000000"
       stroke-width="0.24"
       fill-opacity="0"
       id="path112"
       style="font-variation-settings:normal;opacity:1;fill:#e0922f;fill-opacity:1;stroke:none;stroke-width:3.73096;stroke-linecap:butt;stroke-linejoin:miter;stroke-miterlimit:4;stroke-dasharray:none;stroke-dashoffset:0;stroke-opacity:1;stop-color:#000000;stop-opacity:1" />
    <path
       id="path114"
       style="font-variation-settings:normal;opacity:1;fill:#e0922f;fill-opacity:1;stroke:none;stroke-width:3.73096;stroke-linecap:butt;stroke-linejoin:miter;stroke-miterlimit:4;stroke-dasharray:none;stroke-dashoffset:0;stroke-opacity:1;stop-color:#000000;stop-opacity:1"
       d="m 1138.6103,1274.0862 v 117.6509 h 23.7521 v -49.1164 h 4.8149 c 5.4569,0 9.4438,0.4453 11.958,1.3281 2.5147,0.8831 4.896,2.5107 7.1432,4.8914 2.2471,2.3811 6.4219,8.1493 12.5209,17.2976 l 17.1719,25.5993 h 28.4085 l -14.3627,-22.9541 c -5.6711,-9.1487 -10.1774,-15.5114 -13.5211,-19.0957 -3.3441,-3.5847 -7.5872,-6.8743 -12.7232,-9.8703 10.3258,-1.498 18.0869,-5.1246 23.2766,-10.8759 5.1894,-5.7516 7.7826,-13.0391 7.7826,-21.8666 0,-6.9552 -1.7135,-13.1397 -5.1374,-18.5436 -3.4239,-5.4036 -7.9871,-9.1613 -13.685,-11.2749 -5.698,-2.1132 -14.8304,-3.1698 -27.4029,-3.1698 z m 23.7521,19.9045 h 18.5382 l 17.3359,0.3989 c 3.8522,0.6418 6.8331,2.1841 8.9466,4.6182 2.1133,2.4344 3.1699,5.6323 3.1699,9.5916 0,3.5309 -0.7996,6.4725 -2.4047,8.8264 -1.6051,2.3542 -3.8267,4.0104 -6.6622,4.9734 -2.8355,0.963 -9.9515,1.4428 -21.3474,1.4428 h -17.5763 z" />
    <path
       id="path116"
       style="font-variation-settings:normal;opacity:1;fill:#e0922f;fill-opacity:1;stroke:none;stroke-width:3.73096;stroke-linecap:butt;stroke-linejoin:miter;stroke-miterlimit:4;stroke-dasharray:none;stroke-dashoffset:0;stroke-opacity:1;stop-color:#000000;stop-opacity:1"
       d="m 1428.0786,1274.0862 -45.8263,117.6509 h 25.2004 l 9.7118,-26.7252 h 47.0233 l 10.2746,26.7252 h 25.8399 l -47.1053,-117.6509 z m 12.2751,27.4465 16.21,43.6567 h -32.0976 z" />
    <path
       d="m 1649.1701,1391.7371 h 23.7547 v -117.6488 h -23.7547 z"
       stroke="#000000"
       stroke-width="0.24"
       fill-opacity="0"
       id="path120"
       style="font-variation-settings:normal;opacity:1;fill:#e0922f;fill-opacity:1;stroke:none;stroke-width:3.73096;stroke-linecap:butt;stroke-linejoin:miter;stroke-miterlimit:4;stroke-dasharray:none;stroke-dashoffset:0;stroke-opacity:1;stop-color:#000000;stop-opacity:1" />
    <path
       id="path124"
       style="font-variation-settings:normal;opacity:1;fill:#e0922f;fill-opacity:1;stroke:none;stroke-width:3.73096;stroke-linecap:butt;stroke-linejoin:miter;stroke-miterlimit:4;stroke-dasharray:none;stroke-dashoffset:0;stroke-opacity:1;stop-color:#000000;stop-opacity:1"
       d="m 2094.2138,1223.9423 -51.0402,74.7103 v 19.746 h 48.1491 v 23.6701 h 21.8283 v -23.6701 h 14.6032 v -19.8226 h -14.6032 v -74.6337 z m -2.8911,34.4257 v 40.208 h -27.0477 z" />
    <path
       d="m 538.3278,1391.7371 h 25.35935 l 42.13226,-117.6488 h -25.19929 l -28.81011,87.0732 -29.77345,-87.0732 h -25.7608 z"
       stroke="#000000"
       stroke-width="0.24"
       fill-opacity="0"
       id="path126"
       style="font-variation-settings:normal;opacity:1;fill:#e0922f;fill-opacity:1;stroke:none;stroke-width:3.73096;stroke-linecap:butt;stroke-linejoin:miter;stroke-miterlimit:4;stroke-dasharray:none;stroke-dashoffset:0;stroke-opacity:1;stop-color:#000000;stop-opacity:1" />
    <path
       id="path130"
       style="font-variation-settings:normal;opacity:1;fill:#e0922f;fill-opacity:1;stroke:none;stroke-width:3.73096;stroke-linecap:butt;stroke-linejoin:miter;stroke-miterlimit:4;stroke-dasharray:none;stroke-dashoffset:0;stroke-opacity:1;stop-color:#000000;stop-opacity:1"
       d="m 983.1451,1282.2349 c -8.10776,0 -14.35186,1.9041 -18.73499,5.7112 -4.38313,3.8067 -6.5747,8.446 -6.5747,13.92 0,2.9632 0.78063,6.0978 2.34457,9.4112 1.56365,3.3131 3.89255,6.803 6.97918,10.466 -6.87318,3.4161 -12.04243,7.4373 -15.49954,12.0674 -3.45711,4.6301 -5.18107,9.8494 -5.18107,15.6525 0,6.3796 2.19802,12.0175 6.60205,16.915 5.67964,6.3386 14.15859,9.5096 25.43542,9.5096 5.67957,0 10.58011,-0.786 14.69611,-2.35 4.11562,-1.564 8.00527,-3.9876 11.66837,-7.2798 4.7331,4.4037 9.6717,7.8571 14.8163,10.3677 l 10.4934,-13.3955 -6.7606,-4.2902 -7.4983,-5.9571 3.7,-6.4545 4.0771,-12.1876 -15.6799,-3.5852 c -1.0701,4.2395 -2.3496,7.6789 -3.8312,10.313 l -12.59195,-16.609 c 6.62611,-4.1571 11.02805,-7.8785 13.20955,-11.171 2.1811,-3.2926 3.2737,-6.7702 3.2737,-10.4333 0,-5.7616 -2.2035,-10.6435 -6.6075,-14.636 -4.40366,-3.9921 -10.51591,-5.9844 -18.336,-5.9844 z m 0.43174,12.2203 c 2.83964,0 5.09355,0.7864 6.76054,2.3501 1.66662,1.564 2.50311,3.4559 2.50311,5.6784 0,2.6341 -1.72945,5.2874 -5.18656,7.9629 l -4.69467,3.5798 -4.25744,-4.9406 c -2.63406,-3.0456 -3.95139,-5.6371 -3.95139,-7.7771 0,-1.811 0.78059,-3.4035 2.34461,-4.7821 1.56402,-1.379 3.72425,-2.0714 6.4818,-2.0714 z m -7.40543,38.399 17.6583,21.7956 c -2.96313,2.4695 -5.70374,4.2367 -8.21431,5.3067 -2.51056,1.0701 -5.12108,1.6069 -7.83722,1.6069 -4.11562,0 -7.3998,-1.1863 -9.84843,-3.5525 -2.449,-2.3665 -3.67265,-5.4202 -3.67265,-9.1652 0,-2.9635 0.98662,-5.8666 2.96216,-8.7062 1.97555,-2.84 4.95965,-5.2683 8.95215,-7.2853 z" />
    <path
       d="m 443.41318,1498.9209 h 6.87057 v -28.7795 h 24.37176 v -7.4758 h -24.37176 v -19.6185 h 28.17469 v -7.4757 h -35.04526 z"
       stroke="#000000"
       stroke-width="0.24"
       fill-opacity="0"
       id="path136"
       style="font-variation-settings:normal;opacity:1;fill:url(#linearGradient890);fill-opacity:1;stroke:none;stroke-width:0.895431;stroke-linecap:butt;stroke-linejoin:miter;stroke-miterlimit:4;stroke-dasharray:none;stroke-dashoffset:0;stroke-opacity:1;stop-color:#000000;stop-opacity:1" />
    <path
       id="path138"
       style="font-variation-settings:normal;opacity:1;fill:url(#linearGradient892);fill-opacity:1;stroke:none;stroke-width:0.895431;stroke-linecap:butt;stroke-linejoin:miter;stroke-miterlimit:4;stroke-dasharray:none;stroke-dashoffset:0;stroke-opacity:1;stop-color:#000000;stop-opacity:1"
       d="m 530.39794,1434.4494 c -7.08688,0 -13.00341,2.9012 -17.75661,8.7062 -4.75325,5.8046 -7.13222,14.1073 -7.13222,24.9107 0,8.5559 2.11601,15.8606 6.35062,21.9103 4.66706,6.6837 10.8315,10.0233 18.49449,10.0233 7.60519,0 13.76045,-3.2559 18.45624,-9.7664 4.26378,-5.9058 6.39438,-13.5517 6.39438,-22.9433 0,-6.8276 -1.10298,-12.7122 -3.30649,-17.6528 -2.20387,-4.9405 -5.19461,-8.7095 -8.96852,-11.3022 -3.77387,-2.5926 -7.95139,-3.8858 -12.53189,-3.8858 z m 0.0437,7.1704 c 3.22654,0 6.20273,0.9874 8.9248,2.9622 2.72248,1.9752 4.76168,4.61 6.11564,7.8974 1.75729,4.2958 2.63429,9.1647 2.63429,14.6141 0,8.448 -1.70714,14.8513 -5.12094,19.205 -3.41349,4.3536 -7.64365,6.531 -12.68489,6.531 -4.9264,0 -9.10575,-2.1551 -12.54834,-6.4654 -3.44249,-4.3104 -5.16463,-10.3747 -5.16463,-18.1885 0,-9.0535 1.67748,-15.7435 5.03352,-20.0685 3.35637,-4.3249 7.6253,-6.4873 12.81055,-6.4873 z" />
    <path
       d="m 644.22096,1498.9209 h 32.45269 v -7.4757 H 651.0919 v -55.8738 h -6.87094 z"
       stroke="#000000"
       stroke-width="0.24"
       fill-opacity="0"
       id="path140"
       style="font-variation-settings:normal;opacity:1;fill:url(#linearGradient894);fill-opacity:1;stroke:none;stroke-width:0.895431;stroke-linecap:butt;stroke-linejoin:miter;stroke-miterlimit:4;stroke-dasharray:none;stroke-dashoffset:0;stroke-opacity:1;stop-color:#000000;stop-opacity:1" />
    <path
       d="m 754.92691,1391.7371 h 89.4804 v -19.8219 H 778.6812 v -32.0206 h 59.06523 v -19.8222 H 778.6812 v -26.0817 h 63.47895 v -19.9024 h -87.23324 z"
       stroke="#000000"
       stroke-width="0.24"
       fill-opacity="0"
       id="path142"
       style="font-variation-settings:normal;opacity:1;fill:#e0922f;fill-opacity:1;stroke:none;stroke-width:3.73096;stroke-linecap:butt;stroke-linejoin:miter;stroke-miterlimit:4;stroke-dasharray:none;stroke-dashoffset:0;stroke-opacity:1;stop-color:#000000;stop-opacity:1" />
    <path
       d="m 792.19915,1477.0985 -7.91789,-41.5271 h -7.03096 l 13.83698,63.3495 h 6.94821 l 11.01936,-48.2682 1.51219,-7.4328 1.64233,7.4328 10.97575,48.2682 h 6.60566 l 14.27877,-63.3495 h -6.91385 l -8.17674,40.7063 -2.55272,13.7848 c -0.89058,-7.1445 -2.24011,-14.6206 -4.04925,-22.4276 l -7.40969,-32.0635 h -8.34728 l -9.88369,42.7803 -2.33073,11.7108 z"
       stroke="#000000"
       stroke-width="0.24"
       fill-opacity="0"
       id="path144"
       style="font-variation-settings:normal;opacity:1;fill:url(#linearGradient896);fill-opacity:1;stroke:none;stroke-width:0.895431;stroke-linecap:butt;stroke-linejoin:miter;stroke-miterlimit:4;stroke-dasharray:none;stroke-dashoffset:0;stroke-opacity:1;stop-color:#000000;stop-opacity:1" />
    <path
       d="m 924.19419,1498.9209 h 6.87094 v -55.8738 h 17.19824 v -7.4757 h -41.18124 v 7.4757 h 17.11206 z"
       stroke="#000000"
       stroke-width="0.24"
       fill-opacity="0"
       id="path152"
       style="font-variation-settings:normal;opacity:1;fill:url(#linearGradient898);fill-opacity:1;stroke:none;stroke-width:0.895431;stroke-linecap:butt;stroke-linejoin:miter;stroke-miterlimit:4;stroke-dasharray:none;stroke-dashoffset:0;stroke-opacity:1;stop-color:#000000;stop-opacity:1" />
    <path
       d="m 975.35761,1498.9209 h 6.87094 v -29.8597 h 27.00765 v 29.8597 h 6.8706 v -63.3495 h -6.8706 v 26.0137 h -27.00765 v -26.0137 h -6.87094 z"
       stroke="#000000"
       stroke-width="0.24"
       fill-opacity="0"
       id="path154"
       style="font-variation-settings:normal;opacity:1;fill:url(#linearGradient900);fill-opacity:1;stroke:none;stroke-width:0.895431;stroke-linecap:butt;stroke-linejoin:miter;stroke-miterlimit:4;stroke-dasharray:none;stroke-dashoffset:0;stroke-opacity:1;stop-color:#000000;stop-opacity:1" />
    <path
       d="m 1048.0841,1498.9209 h 38.7614 v -7.4757 h -31.8904 v -21.5631 h 28.7358 v -7.4758 h -28.7358 v -19.3592 h 30.6808 v -7.4757 h -37.5518 z"
       stroke="#000000"
       stroke-width="0.24"
       fill-opacity="0"
       id="path156"
       style="font-variation-settings:normal;opacity:1;fill:url(#linearGradient902);fill-opacity:1;stroke:none;stroke-width:0.895431;stroke-linecap:butt;stroke-linejoin:miter;stroke-miterlimit:4;stroke-dasharray:none;stroke-dashoffset:0;stroke-opacity:1;stop-color:#000000;stop-opacity:1" />
    <path
       d="m 1157.3681,1498.9209 h 6.8709 v -28.7795 h 24.3718 v -7.4758 h -24.3718 v -19.6185 h 28.1744 v -7.4757 h -35.0453 z"
       stroke="#000000"
       stroke-width="0.24"
       fill-opacity="0"
       id="path158"
       style="font-variation-settings:normal;opacity:1;fill:url(#linearGradient904);fill-opacity:1;stroke:none;stroke-width:0.895431;stroke-linecap:butt;stroke-linejoin:miter;stroke-miterlimit:4;stroke-dasharray:none;stroke-dashoffset:0;stroke-opacity:1;stop-color:#000000;stop-opacity:1" />
    <path
       id="path160"
       style="font-variation-settings:normal;opacity:1;fill:url(#linearGradient906);fill-opacity:1;stroke:none;stroke-width:0.895431;stroke-linecap:butt;stroke-linejoin:miter;stroke-miterlimit:4;stroke-dasharray:none;stroke-dashoffset:0;stroke-opacity:1;stop-color:#000000;stop-opacity:1"
       d="m 1221.3673,1435.5698 v 63.3535 h 6.8699 v -28.1353 h 7.941 c 2.3024,0 4.097,0.3142 5.3778,0.9346 1.2805,0.6204 2.6008,1.8232 3.9678,3.6125 l 6.0774,10.4114 6.9245,13.1768 h 8.6461 l -9.0779,-17.243 c -1.5554,-2.9672 -3.3543,-5.6632 -5.3996,-8.0831 -1.0085,-1.1883 -2.475,-2.3601 -4.4051,-3.5197 4.7533,-0.8059 8.3731,-2.6912 10.865,-5.6565 2.4919,-2.9654 3.7383,-6.8402 3.7383,-11.6192 0,-3.6276 -0.7337,-6.8149 -2.2025,-9.5642 -1.4693,-2.7494 -3.3501,-4.7166 -5.6402,-5.8971 -2.2904,-1.1804 -5.8408,-1.7707 -10.6518,-1.7707 z m 6.8699,7.001 h 16.4176 c 3.6873,0 6.4675,0.9143 8.34,2.7436 1.8726,1.8293 2.8092,4.3442 2.8092,7.542 0,2.2181 -0.4853,4.1608 -1.4647,5.8315 -0.9793,1.6711 -2.308,2.8947 -3.9787,3.6727 -1.6711,0.7779 -4.1188,1.1695 -7.3453,1.1695 h -14.7781 z" />
    <path
       d="m 1294.0922,1498.9209 h 38.7617 v -7.4757 h -31.8908 v -21.5631 h 28.7362 v -7.4758 h -28.7362 v -19.3592 h 30.6808 v -7.4757 h -37.5517 z"
       stroke="#000000"
       stroke-width="0.24"
       fill-opacity="0"
       id="path164"
       style="font-variation-settings:normal;opacity:1;fill:url(#linearGradient908);fill-opacity:1;stroke:none;stroke-width:0.895431;stroke-linecap:butt;stroke-linejoin:miter;stroke-miterlimit:4;stroke-dasharray:none;stroke-dashoffset:0;stroke-opacity:1;stop-color:#000000;stop-opacity:1" />
    <path
       d="m 1362.6702,1498.9209 h 38.7617 v -7.4757 h -31.8907 v -21.5631 h 28.7362 v -7.4758 h -28.7362 v -19.3592 h 30.6808 v -7.4757 h -37.5518 z"
       stroke="#000000"
       stroke-width="0.24"
       fill-opacity="0"
       id="path166"
       style="font-variation-settings:normal;opacity:1;fill:url(#linearGradient910);fill-opacity:1;stroke:none;stroke-width:0.895431;stroke-linecap:butt;stroke-linejoin:miter;stroke-miterlimit:4;stroke-dasharray:none;stroke-dashoffset:0;stroke-opacity:1;stop-color:#000000;stop-opacity:1" />
    <path
       d="m 1456.0308,1489.8028 -2.4658,-9.377 -12.3304,-44.8544 h -10.3318 v 63.3495 h 6.6113 v -53.8934 l 15.0611,53.8934 h 6.1751 l 15.1488,-52.9819 v 52.9819 h 6.6113 v -63.3495 h -9.2505 l -12.4603,44.0768 z"
       stroke="#000000"
       stroke-width="0.895431"
       fill-opacity="0"
       id="path168"
       style="fill:url(#linearGradient9657);fill-opacity:1;stroke:none" />
    <path
       id="path170"
       style="fill:url(#linearGradient9659);fill-opacity:1;stroke:none;stroke-width:3.73096"
       d="m 1526.0838,1435.5698 -20.0357,63.3535 h 7.2469 l 5.6511,-19.1886 h 21.8502 l 6.0446,19.1886 h 7.8645 l -21.2709,-63.3535 z m 3.4923,6.6567 3.6726,13.1385 5.3997,17.5435 h -17.6965 l 5.7822,-18.5819 z" />
    <path
       d="m 1580.1151,1498.9209 h 6.6117 v -49.8457 l 27.267,49.8457 h 7.0433 v -63.3495 h -6.568 v 49.8359 l -27.3103,-49.8359 h -7.0437 z"
       stroke="#000000"
       stroke-width="0.895431"
       fill-opacity="0"
       id="path174"
       style="fill:url(#linearGradient9661);fill-opacity:1;stroke:none" />
    <path
       d="m 0,1474.7219 h 401.86199 v -7.4758 H 0 Z"
       stroke="#000000"
       stroke-width="0.24"
       fill-opacity="0"
       id="path200"
       style="font-variation-settings:normal;opacity:1;fill:url(#linearGradient611);fill-opacity:1;stroke:none;stroke-width:1.26864;stroke-linecap:butt;stroke-linejoin:miter;stroke-miterlimit:4;stroke-dasharray:none;stroke-dashoffset:0;stroke-opacity:1;stop-color:#000000;stop-opacity:1" />
    <path
       d="m 2127.7542,1474.7219 h -466.7067 v -7.4758 h 466.7067 z"
       stroke="#000000"
       stroke-width="0.24"
       fill-opacity="0"
       id="path202"
       style="font-variation-settings:normal;opacity:1;fill:url(#linearGradient613);fill-opacity:1;stroke:none;stroke-width:1.36717;stroke-linecap:butt;stroke-linejoin:miter;stroke-miterlimit:4;stroke-dasharray:none;stroke-dashoffset:0;stroke-opacity:1;stop-color:#000000;stop-opacity:1" />
  </g>
  <g
     id="g355"
     transform="matrix(3.9322659,0,0,3.9322659,-8807.631,-4398.3986)">
    <path
       id="path194"
       style="fill:#e0922f;fill-opacity:1;stroke:none;stroke-width:1.34364"
       d="m 2427.504,1178.079 c -0.9813,0 -1.962,0.3427 -2.5192,1.0256 l -127.565,127.5649 c -1.3658,1.1144 -1.3658,3.9264 0,5.0407 l 128.8187,128.8187 h 16.1533 l 5.1844,-5.1863 v -1.474 l 6.5621,-6.5602 10.2288,-10.2289 -42.99,-42.9883 c -1.8211,-1.4856 -1.8211,-5.2358 0,-6.7214 l 63.2865,-63.2864 19.2768,-19.2769 c 1.4858,-1.8211 5.2357,-1.8211 6.7214,0 l 42.9902,42.9881 10.0105,-10.0104 c 1.3655,-1.1144 1.3655,-3.9263 0,-5.0407 l -133.6391,-133.6389 c -0.5571,-0.6829 -1.5379,-1.0256 -2.5194,-1.0256 z m 5.0919,14.0337 5.5013,5.5012 -6.4382,6.438 -5.5012,-5.5032 z m -20.2708,3.0389 73.0843,73.0863 c 1.8237,1.488 1.8237,5.2414 0,6.7294 l -92.127,92.127 c -1.4878,1.8235 -5.2433,1.8235 -6.7312,0 l -73.0844,-73.0844 z m 94.977,90.6704 c -0.6486,0 -1.2989,0.2259 -1.667,0.6771 l -16.358,16.3599 c 0.844,0.2286 1.5739,0.6884 2.1059,1.2244 l 41.2955,41.2953 -68.3114,68.3135 1.6927,1.6926 85.8975,-85.8955 -42.9901,-42.9902 c -0.3683,-0.4512 -1.0165,-0.6771 -1.6651,-0.6771 z m -190.4381,22.0207 5.5012,5.5031 -6.4362,6.4361 -5.5031,-5.5012 z" />
    <path
       id="path186"
       style="fill:#e0922f;fill-opacity:1;stroke:none;stroke-width:1.34364"
       d="m 2430.5411,1118.5461 c -35.0654,-0.2876 -71.4595,10.4802 -101.2438,29.0846 -29.7843,18.6043 -52.9585,45.0452 -67.099,71.9663 -10.5736,19.7831 -18.3954,43.169 -21.1979,68.2641 -2.8022,25.0951 -0.5858,51.8998 7.0777,77.0445 7.6637,25.1445 20.7746,48.628 37.0974,67.8942 16.3227,19.2661 35.8572,34.3151 55.6674,44.8382 19.7831,10.5734 43.1689,18.3956 68.2642,21.1978 25.0949,2.8026 51.8997,0.5838 77.0445,-7.0797 25.1445,-7.6635 48.6299,-20.7726 67.896,-37.0952 19.2663,-16.3228 34.3133,-35.8596 44.8362,-55.6694 3.0544,-5.7325 5.8812,-11.7417 8.4222,-18.0074 l 78.1171,-192.619 c 3.7634,-14.8973 0.5388,-32.5867 -8.241,-45.1964 -8.3858,-12.8753 -23.5664,-22.5113 -38.786,-24.6226 z m 190.0958,17.9659 h 14.6082 v 57.5629 h 11.2641 v 15.2873 h -11.2641 v 18.2593 h -16.8363 v -18.2593 h -37.1366 v -15.2263 z m -191.135,17.9779 c 0.9823,-0.014 1.9631,-0.014 2.9424,0 5.2238,0.055 10.4031,0.3682 15.4959,0.9369 20.3717,2.2749 39.356,8.6249 55.4156,17.2082 16.0813,8.5424 31.9402,20.7586 45.1906,36.3985 13.2505,15.6399 23.8928,34.7045 30.1139,55.1164 6.221,20.4118 8.0201,42.1708 5.7452,62.5425 -2.2749,20.3716 -8.6229,39.356 -17.2062,55.4154 -8.5422,16.0816 -20.7586,31.9402 -36.3985,45.1907 -15.64,13.2504 -34.7044,23.8929 -55.1163,30.1139 -20.4118,6.2211 -42.1707,8.0201 -62.5425,5.7453 -20.3717,-2.2749 -39.356,-8.6251 -55.4156,-17.2083 -16.0813,-8.5422 -31.9401,-20.7565 -45.1906,-36.3964 -13.2505,-15.6399 -23.8927,-34.7046 -30.1139,-55.1165 -6.2211,-20.4119 -8.0202,-42.1728 -5.7453,-62.5444 2.275,-20.3718 8.623,-39.356 17.2063,-55.4155 8.5423,-16.0814 20.7586,-31.9381 36.3985,-45.1886 15.6398,-13.2504 34.7043,-23.893 55.1164,-30.114 14.352,-4.3741 29.3704,-6.5629 44.1041,-6.6861 z" />
    <path
       d="m 2618.4093,1194.0745 v -31.0096 l -20.8589,31.0096 z"
       stroke="#E0922F"
       stroke-width="0.322476"
       fill-opacity="0"
       id="path180"
       style="fill:#e0922f;fill-opacity:1;stroke:none" />
    <path
       d="m 2448.1961,1347.3078 -14.0766,14.0766 c -0.9105,0.7429 -0.9105,2.6171 0,3.3599 l 30.3597,30.3599 c 0.7429,0.9106 2.6173,0.9106 3.3601,0 l 14.0766,-14.0765 c 0.9106,-0.7429 0.9106,-2.6172 0,-3.3602 l -30.3598,-30.3597 c -0.7428,-0.9105 -2.6171,-0.9105 -3.36,0 z"
       stroke="#E0922F"
       stroke-width="0.322476"
       fill-opacity="0"
       id="path196"
       style="fill:#e0922f;fill-opacity:1;stroke:none" />
  </g>
</svg>
