<?xml version="1.0" encoding="UTF-8" standalone="no"?>
<svg
   width="1500pt"
   height="1500pt"
   viewBox="0 0 1500.0001 1500.0001"
   overflow="visible"
   version="1.1"
   id="svg204"
   sodipodi:docname="MediaKit-Save&amp;Raid FTF Emote Plain Disk Transparent.svg"
   inkscape:version="1.2.1 (9c6d41e410, 2022-07-14)"
   inkscape:export-filename="MediaKit-Save&amp;Raid FTF Emote Plain Disk Transparent.png"
   inkscape:export-xdpi="72"
   inkscape:export-ydpi="72"
   xmlns:inkscape="http://www.inkscape.org/namespaces/inkscape"
   xmlns:sodipodi="http://sodipodi.sourceforge.net/DTD/sodipodi-0.dtd"
   xmlns="http://www.w3.org/2000/svg"
   xmlns:svg="http://www.w3.org/2000/svg">
  <defs
     id="defs208" />
  <sodipodi:namedview
     id="namedview206"
     pagecolor="#ffffff"
     bordercolor="#999999"
     borderopacity="1"
     inkscape:showpageshadow="0"
     inkscape:pageopacity="0"
     inkscape:pagecheckerboard="true"
     inkscape:deskcolor="#d1d1d1"
     inkscape:document-units="px"
     showgrid="false"
     inkscape:zoom="0.26497395"
     inkscape:cx="641.5725"
     inkscape:cy="905.74941"
     inkscape:window-width="1920"
     inkscape:window-height="1017"
     inkscape:window-x="1912"
     inkscape:window-y="-8"
     inkscape:window-maximized="1"
     inkscape:current-layer="svg204" />
  <path
     id="path194"
     style="fill:#e0922f;fill-opacity:1;stroke:none;stroke-width:4.5075"
     d="m 629.56685,309.89568 c -3.29241,0 -6.58231,1.14911 -8.45157,3.44005 L 193.17512,741.27586 c -4.58189,3.73808 -4.58189,13.1717 0,16.90978 l 432.14616,432.14616 h 54.18908 l 17.39183,-17.3984 v -4.9454 l 22.01368,-22.0071 34.31466,-34.3147 L 609.0124,967.45454 c -6.10902,-4.98439 -6.10902,-17.56462 0,-22.54856 l 212.3061,-212.30616 64.66785,-64.66775 c 4.98441,-6.10902 17.56412,-6.10902 22.54852,0 l 144.21813,144.21157 33.5818,-33.58178 c 4.5813,-3.73852 4.5813,-13.1717 0,-16.90977 L 638.01843,313.33573 c -1.86904,-2.29094 -5.15911,-3.44005 -8.45158,-3.44005 z m 17.08147,47.07789 18.45479,18.45481 -21.59774,21.59771 -18.45481,-18.46139 z m -68.00218,10.19472 245.17489,245.18145 c 6.11763,4.99161 6.11763,17.5835 0,22.57494 L 514.76414,943.98162 c -4.99161,6.11741 -17.58996,6.11741 -22.58157,0 L 247.00768,698.80673 Z m 318.61767,304.17082 c -2.17597,0 -4.35726,0.75726 -5.59246,2.27133 l -54.87579,54.88245 c 2.8315,0.76627 5.28003,2.30933 7.06493,4.10693 l 138.53312,138.53319 -229.16308,229.16969 5.67848,5.6784 L 1047.068,817.82865 902.84987,673.61044 c -1.23556,-1.51407 -3.40996,-2.27133 -5.58606,-2.27133 z m -638.85971,73.87203 18.45481,18.46139 -21.59113,21.59114 -18.4614,-18.45482 z" />
  <path
     id="path186"
     style="fill:#e0922f;fill-opacity:1;stroke:none;stroke-width:4.5075"
     d="M 639.75499,110.18101 C 522.12187,109.21613 400.03076,145.33891 300.11395,207.75045 200.19714,270.16219 122.45505,358.8632 75.018144,449.17496 39.547318,515.54114 13.307321,593.99346 3.9061078,678.17962 -5.4947428,762.36567 1.9407859,852.28691 27.649711,936.6393 c 25.708562,84.3519 69.691909,163.1316 124.449449,227.7634 54.75755,64.632 120.29006,115.1168 186.74675,150.4182 66.36618,35.4704 144.81816,61.7112 229.00467,71.1121 84.1856,9.4013 174.10733,1.9582 258.45969,-23.7503 84.35188,-25.7085 163.13837,-69.6853 227.76983,-124.4428 64.6322,-54.7575 115.1103,-120.2971 150.4117,-186.7535 10.2464,-19.2303 19.7292,-39.3896 28.2534,-60.40889 l 262.0582,-646.17565 c 12.625,-49.97599 1.8075,-109.31798 -27.6459,-151.61994 -28.1318,-43.19257 -79.0578,-75.5182 -130.1147,-82.60091 z m 637.71091,60.27028 h 49.0059 v 193.10526 h 37.7877 v 51.28388 h -37.7877 v 61.25413 h -56.4803 V 414.84043 H 1145.41 v -51.07919 z m -641.1972,60.30989 c 3.29513,-0.027 6.58547,-0.027 9.87117,0.004 17.52375,0.1812 34.89866,1.23502 51.98375,3.1429 68.34046,7.63166 132.02671,28.93391 185.90169,57.72822 53.94795,28.65693 107.14903,69.63863 151.60009,122.10547 44.4511,52.46682 80.153,116.42275 101.0227,184.89797 20.8698,68.47515 26.9048,141.46993 19.2736,209.81031 -7.6317,68.34047 -28.9273,132.02711 -57.7217,185.90163 -28.6563,53.94842 -69.6386,107.14892 -122.10536,151.60012 -52.46726,44.4511 -116.42232,80.1531 -184.89809,101.0227 -68.47506,20.8698 -141.46943,26.9052 -209.81025,19.2736 -68.34047,-7.6317 -132.02666,-28.9344 -185.90163,-57.7282 -53.94792,-28.6563 -107.14897,-69.6315 -151.60011,-122.0984 -44.45113,-52.4668 -80.15251,-116.42274 -101.02272,-184.89798 -20.86966,-68.4756 -26.90521,-141.47647 -19.27356,-209.81693 7.63166,-68.34082 28.92724,-132.02669 57.72164,-185.90157 28.65683,-53.948 69.63858,-107.14239 122.10542,-151.59352 52.46682,-44.45113 116.42238,-80.15306 184.89799,-101.02273 48.14661,-14.67404 98.52854,-22.01641 147.95537,-22.42971 z" />
  <path
     d="M 1269.9932,363.5552 V 259.52782 l -69.9744,104.02738 z"
     stroke="#E0922F"
     stroke-width="1.0818"
     fill-opacity="0"
     id="path180"
     style="fill:#e0922f;fill-opacity:1;stroke:none" />
  <path
     d="m 698.98188,877.60427 -47.22241,47.22243 c -3.05473,2.4922 -3.05473,8.77972 0,11.27192 l 101.84716,101.84758 c 2.49214,3.0547 8.78012,3.0547 11.27226,0 l 47.2225,-47.22247 c 3.05429,-2.4922 3.05429,-8.77971 0,-11.27191 L 710.25378,877.60427 c -2.49214,-3.05429 -8.77964,-3.05429 -11.2719,0 z"
     stroke="#E0922F"
     stroke-width="1.0818"
     fill-opacity="0"
     id="path196"
     style="fill:#e0922f;fill-opacity:1;stroke:none" />
</svg>
