<?xml version="1.0" encoding="UTF-8" standalone="no"?>
<svg
   width="618pt"
   height="618pt"
   viewBox="0 0 618.00001 618"
   overflow="visible"
   version="1.1"
   id="svg78"
   sodipodi:docname="S&amp;R Diablo Disc Only.svg"
   inkscape:version="1.3.2 (091e20e, 2023-11-25, custom)"
   inkscape:export-filename="S&amp;R Diablo.png"
   inkscape:export-xdpi="140.76515"
   inkscape:export-ydpi="140.76515"
   xmlns:inkscape="http://www.inkscape.org/namespaces/inkscape"
   xmlns:sodipodi="http://sodipodi.sourceforge.net/DTD/sodipodi-0.dtd"
   xmlns="http://www.w3.org/2000/svg"
   xmlns:svg="http://www.w3.org/2000/svg">
  <defs
     id="defs78">
    <filter
       inkscape:collect="always"
       style="color-interpolation-filters:sRGB"
       id="filter105"
       x="-0.0015904657"
       y="-0.0016258817"
       width="1.0031809"
       height="1.0032518">
      <feGaussianBlur
         inkscape:collect="always"
         stdDeviation="0.26370065"
         id="feGaussianBlur105" />
    </filter>
    <filter
       inkscape:collect="always"
       style="color-interpolation-filters:sRGB"
       id="filter124"
       x="-0.0050154151"
       y="-0.0051257859"
       width="1.0100308"
       height="1.0102516">
      <feGaussianBlur
         inkscape:collect="always"
         stdDeviation="0.8401111"
         id="feGaussianBlur124" />
    </filter>
    <filter
       inkscape:collect="always"
       style="color-interpolation-filters:sRGB"
       id="filter125"
       x="-0.02618279"
       y="-0.02618279"
       width="1.0523656"
       height="1.0523656">
      <feGaussianBlur
         inkscape:collect="always"
         stdDeviation="0.8401111"
         id="feGaussianBlur125" />
    </filter>
    <filter
       inkscape:collect="always"
       style="color-interpolation-filters:sRGB"
       id="filter10"
       x="-0.050804174"
       y="-0.045489194"
       width="1.1016083"
       height="1.0909784">
      <feGaussianBlur
         inkscape:collect="always"
         stdDeviation="9.9239049"
         id="feGaussianBlur10" />
    </filter>
    <filter
       inkscape:label="Swirl"
       inkscape:menu="Distort"
       inkscape:menu-tooltip="Paint objects with a transparent turbulence which wraps around color edges"
       height="1.0550056"
       y="-0.027502798"
       width="1.0614325"
       x="-0.030716239"
       style="color-interpolation-filters:sRGB"
       id="filter190">
      <feGaussianBlur
         stdDeviation="3"
         result="result10"
         id="feGaussianBlur187" />
      <feBlend
         in2="result10"
         mode="normal"
         in="result10"
         result="fbSourceGraphic"
         id="feBlend187" />
      <feGaussianBlur
         stdDeviation="3"
         result="result8"
         in="fbSourceGraphic"
         id="feGaussianBlur188" />
      <feTurbulence
         seed="0"
         result="result7"
         type="fractalNoise"
         numOctaves="1"
         baseFrequency="0.13799999999999996 0.0059999999999998405"
         id="feTurbulence188" />
      <feComposite
         in2="result8"
         result="result6"
         operator="in"
         in="result8"
         id="feComposite188" />
      <feDisplacementMap
         in2="result6"
         in="result7"
         xChannelSelector="R"
         yChannelSelector="G"
         scale="50"
         result="result4"
         id="feDisplacementMap188" />
      <feComposite
         in2="result4"
         result="result2"
         operator="arithmetic"
         in="result8"
         k1="1"
         k3="1"
         id="feComposite189"
         k2="0"
         k4="0" />
      <feComposite
         in2="result2"
         result="fbSourceGraphic"
         in="fbSourceGraphic"
         operator="in"
         id="feComposite190" />
      <feDisplacementMap
         in2="result4"
         yChannelSelector="G"
         scale="50"
         xChannelSelector="R"
         id="feDisplacementMap190" />
    </filter>
    <filter
       height="1.0045838"
       width="1.0051194"
       y="-0.0022918999"
       x="-0.0025596865"
       inkscape:menu-tooltip="Van Gogh painting effect for bitmaps"
       inkscape:menu="Distort"
       inkscape:label="Pixel Smear"
       style="color-interpolation-filters:sRGB"
       id="filter192">
      <feTurbulence
         type="fractalNoise"
         numOctaves="1"
         baseFrequency="0.25 0.4"
         seed="5"
         id="feTurbulence190" />
      <feColorMatrix
         result="result5"
         values="1 0 0 0 0 0 1 0 0 0 0 0 1 0 0 0 0 0 1 0 "
         id="feColorMatrix190" />
      <feComposite
         in="SourceGraphic"
         operator="in"
         in2="result5"
         id="feComposite191" />
      <feMorphology
         operator="erode"
         radius="0"
         result="result3"
         id="feMorphology191" />
      <feTurbulence
         numOctaves="5"
         baseFrequency="0.03"
         type="fractalNoise"
         seed="7"
         id="feTurbulence191" />
      <feGaussianBlur
         stdDeviation="0.5"
         result="result91"
         id="feGaussianBlur191" />
      <feDisplacementMap
         in="result3"
         xChannelSelector="R"
         yChannelSelector="G"
         scale="27"
         result="result4"
         in2="result91"
         id="feDisplacementMap191" />
      <feComposite
         in="result4"
         k3="0.8"
         k1="1.3"
         result="result2"
         operator="arithmetic"
         in2="result4"
         id="feComposite192"
         k2="0"
         k4="0" />
      <feBlend
         in2="result2"
         mode="screen"
         in="result2"
         id="feBlend192" />
    </filter>
    <filter
       style="color-interpolation-filters:sRGB"
       x="-0.029543353"
       width="1.0590867"
       y="-0.026452618"
       height="1.0529052"
       inkscape:label="Ink Blot"
       id="filter274">
      <feGaussianBlur
         in="SourceGraphic"
         stdDeviation="1.8908927"
         result="blur1"
         id="feGaussianBlur273" />
      <feTurbulence
         type="fractalNoise"
         baseFrequency="0.047"
         numOctaves="1"
         seed="10"
         result="turbulence"
         id="feTurbulence273" />
      <feDisplacementMap
         in="blur1"
         in2="turbulence"
         xChannelSelector="R"
         yChannelSelector="G"
         scale="13.3"
         result="map"
         id="feDisplacementMap273" />
      <feGaussianBlur
         in="map"
         stdDeviation="3.8799999999999999"
         result="blur2"
         id="feGaussianBlur274" />
      <feComposite
         in="blur2"
         in2="map"
         operator="atop"
         result="composite"
         id="feComposite274" />
    </filter>
    <filter
       style="color-interpolation-filters:sRGB"
       x="-0.081432194"
       width="1.1628644"
       y="-0.26050147"
       height="1.5210029"
       inkscape:label="Ink Blot"
       id="filter345">
      <feGaussianBlur
         in="SourceGraphic"
         stdDeviation="0.01 10"
         result="blur1"
         id="feGaussianBlur344" />
      <feTurbulence
         type="fractalNoise"
         baseFrequency="0.0433"
         numOctaves="2"
         seed="2"
         result="turbulence"
         id="feTurbulence344" />
      <feDisplacementMap
         in="blur1"
         in2="turbulence"
         xChannelSelector="R"
         yChannelSelector="G"
         scale="13.3136"
         result="map"
         id="feDisplacementMap344" />
      <feGaussianBlur
         in="map"
         stdDeviation="3.87968"
         result="blur2"
         id="feGaussianBlur345" />
      <feComposite
         in="blur2"
         in2="map"
         operator="atop"
         result="composite"
         id="feComposite345" />
    </filter>
    <filter
       style="color-interpolation-filters:sRGB"
       x="-0.15953919"
       width="1.3190784"
       y="-0.094366901"
       height="1.1887338"
       inkscape:label="Ink Blot"
       id="filter347">
      <feGaussianBlur
         in="SourceGraphic"
         stdDeviation="1.9361003"
         result="blur1"
         id="feGaussianBlur346" />
      <feTurbulence
         type="fractalNoise"
         baseFrequency="0.0433"
         numOctaves="2"
         seed="2"
         result="turbulence"
         id="feTurbulence346" />
      <feDisplacementMap
         in="blur1"
         in2="turbulence"
         xChannelSelector="R"
         yChannelSelector="G"
         scale="13.3136"
         result="map"
         id="feDisplacementMap346" />
      <feGaussianBlur
         in="map"
         stdDeviation="3.87968"
         result="blur2"
         id="feGaussianBlur347" />
      <feComposite
         in="blur2"
         in2="map"
         operator="atop"
         result="composite"
         id="feComposite347" />
    </filter>
    <filter
       style="color-interpolation-filters:sRGB"
       x="-0.22554888"
       width="1.4510978"
       y="-0.13029759"
       height="1.2605952"
       inkscape:label="Ink Blot"
       id="filter349">
      <feGaussianBlur
         in="SourceGraphic"
         stdDeviation="1.9361003"
         result="blur1"
         id="feGaussianBlur348" />
      <feTurbulence
         type="fractalNoise"
         baseFrequency="0.0433"
         numOctaves="2"
         seed="2"
         result="turbulence"
         id="feTurbulence348" />
      <feDisplacementMap
         in="blur1"
         in2="turbulence"
         xChannelSelector="R"
         yChannelSelector="G"
         scale="13.3136"
         result="map"
         id="feDisplacementMap348" />
      <feGaussianBlur
         in="map"
         stdDeviation="3.87968"
         result="blur2"
         id="feGaussianBlur349" />
      <feComposite
         in="blur2"
         in2="map"
         operator="atop"
         result="composite"
         id="feComposite349" />
    </filter>
    <filter
       style="color-interpolation-filters:sRGB"
       x="-0.27705002"
       width="1.5541002"
       y="-0.19426513"
       height="1.3885303"
       inkscape:label="Ink Blot"
       id="filter351">
      <feGaussianBlur
         in="SourceGraphic"
         stdDeviation="1.9361003"
         result="blur1"
         id="feGaussianBlur350" />
      <feTurbulence
         type="fractalNoise"
         baseFrequency="0.0433"
         numOctaves="2"
         seed="2"
         result="turbulence"
         id="feTurbulence350" />
      <feDisplacementMap
         in="blur1"
         in2="turbulence"
         xChannelSelector="R"
         yChannelSelector="G"
         scale="13.3136"
         result="map"
         id="feDisplacementMap350" />
      <feGaussianBlur
         in="map"
         stdDeviation="3.87968"
         result="blur2"
         id="feGaussianBlur351" />
      <feComposite
         in="blur2"
         in2="map"
         operator="atop"
         result="composite"
         id="feComposite351" />
    </filter>
    <filter
       style="color-interpolation-filters:sRGB"
       x="-0.36704209"
       width="1.7340842"
       y="-0.18157586"
       height="1.3631517"
       inkscape:label="Ink Blot"
       id="filter353">
      <feGaussianBlur
         in="SourceGraphic"
         stdDeviation="1.9361003"
         result="blur1"
         id="feGaussianBlur352" />
      <feTurbulence
         type="fractalNoise"
         baseFrequency="0.0433"
         numOctaves="2"
         seed="2"
         result="turbulence"
         id="feTurbulence352" />
      <feDisplacementMap
         in="blur1"
         in2="turbulence"
         xChannelSelector="R"
         yChannelSelector="G"
         scale="13.3136"
         result="map"
         id="feDisplacementMap352" />
      <feGaussianBlur
         in="map"
         stdDeviation="3.87968"
         result="blur2"
         id="feGaussianBlur353" />
      <feComposite
         in="blur2"
         in2="map"
         operator="atop"
         result="composite"
         id="feComposite353" />
    </filter>
    <filter
       style="color-interpolation-filters:sRGB"
       x="-0.24216694"
       width="1.4843339"
       y="-0.13715363"
       height="1.2743073"
       inkscape:label="Ink Blot"
       id="filter355">
      <feGaussianBlur
         in="SourceGraphic"
         stdDeviation="1.9361003"
         result="blur1"
         id="feGaussianBlur354" />
      <feTurbulence
         type="fractalNoise"
         baseFrequency="0.0433"
         numOctaves="2"
         seed="2"
         result="turbulence"
         id="feTurbulence354" />
      <feDisplacementMap
         in="blur1"
         in2="turbulence"
         xChannelSelector="R"
         yChannelSelector="G"
         scale="13.3136"
         result="map"
         id="feDisplacementMap354" />
      <feGaussianBlur
         in="map"
         stdDeviation="3.87968"
         result="blur2"
         id="feGaussianBlur355" />
      <feComposite
         in="blur2"
         in2="map"
         operator="atop"
         result="composite"
         id="feComposite355" />
    </filter>
    <filter
       style="color-interpolation-filters:sRGB"
       x="-0.24360003"
       width="1.4872001"
       y="-0.12906243"
       height="1.2581249"
       inkscape:label="Ink Blot"
       id="filter357">
      <feGaussianBlur
         in="SourceGraphic"
         stdDeviation="1.9361003"
         result="blur1"
         id="feGaussianBlur356" />
      <feTurbulence
         type="fractalNoise"
         baseFrequency="0.0433"
         numOctaves="2"
         seed="2"
         result="turbulence"
         id="feTurbulence356" />
      <feDisplacementMap
         in="blur1"
         in2="turbulence"
         xChannelSelector="R"
         yChannelSelector="G"
         scale="13.3136"
         result="map"
         id="feDisplacementMap356" />
      <feGaussianBlur
         in="map"
         stdDeviation="3.87968"
         result="blur2"
         id="feGaussianBlur357" />
      <feComposite
         in="blur2"
         in2="map"
         operator="atop"
         result="composite"
         id="feComposite357" />
    </filter>
    <filter
       style="color-interpolation-filters:sRGB"
       x="-0.22554919"
       width="1.4510984"
       y="-0.13029759"
       height="1.2605952"
       inkscape:label="Ink Blot"
       id="filter359">
      <feGaussianBlur
         in="SourceGraphic"
         stdDeviation="1.9361003"
         result="blur1"
         id="feGaussianBlur358" />
      <feTurbulence
         type="fractalNoise"
         baseFrequency="0.0433"
         numOctaves="2"
         seed="2"
         result="turbulence"
         id="feTurbulence358" />
      <feDisplacementMap
         in="blur1"
         in2="turbulence"
         xChannelSelector="R"
         yChannelSelector="G"
         scale="13.3136"
         result="map"
         id="feDisplacementMap358" />
      <feGaussianBlur
         in="map"
         stdDeviation="3.87968"
         result="blur2"
         id="feGaussianBlur359" />
      <feComposite
         in="blur2"
         in2="map"
         operator="atop"
         result="composite"
         id="feComposite359" />
    </filter>
    <filter
       style="color-interpolation-filters:sRGB"
       x="-0.14445071"
       width="1.2889014"
       y="-0.092131861"
       height="1.1842637"
       inkscape:label="Ink Blot"
       id="filter361">
      <feGaussianBlur
         in="SourceGraphic"
         stdDeviation="1.9361003"
         result="blur1"
         id="feGaussianBlur360" />
      <feTurbulence
         type="fractalNoise"
         baseFrequency="0.0433"
         numOctaves="2"
         seed="2"
         result="turbulence"
         id="feTurbulence360" />
      <feDisplacementMap
         in="blur1"
         in2="turbulence"
         xChannelSelector="R"
         yChannelSelector="G"
         scale="13.3136"
         result="map"
         id="feDisplacementMap360" />
      <feGaussianBlur
         in="map"
         stdDeviation="3.87968"
         result="blur2"
         id="feGaussianBlur361" />
      <feComposite
         in="blur2"
         in2="map"
         operator="atop"
         result="composite"
         id="feComposite361" />
    </filter>
    <filter
       inkscape:collect="always"
       style="color-interpolation-filters:sRGB"
       id="filter363"
       x="-0.033695177"
       y="-0.028251731"
       width="1.0673904"
       height="1.0565035">
      <feGaussianBlur
         inkscape:collect="always"
         stdDeviation="6.7800000000000002"
         id="feGaussianBlur363" />
    </filter>
    <filter
       style="color-interpolation-filters:sRGB"
       x="-0.03978478"
       width="1.0795696"
       y="-0.052554163"
       height="1.1051083"
       inkscape:label="Ink Blot"
       id="filter168">
      <feGaussianBlur
         in="SourceGraphic"
         stdDeviation="0.0017363569"
         result="blur1"
         id="feGaussianBlur167" />
      <feTurbulence
         type="fractalNoise"
         baseFrequency="0.047"
         numOctaves="1"
         seed="10"
         result="turbulence"
         id="feTurbulence167" />
      <feDisplacementMap
         in="blur1"
         in2="turbulence"
         xChannelSelector="R"
         yChannelSelector="G"
         scale="13.3"
         result="map"
         id="feDisplacementMap167" />
      <feGaussianBlur
         in="map"
         stdDeviation="3.8799999999999999"
         result="blur2"
         id="feGaussianBlur168" />
      <feComposite
         in="blur2"
         in2="map"
         operator="atop"
         result="fbSourceGraphic"
         id="feComposite168" />
      <feColorMatrix
         result="fbSourceGraphicAlpha"
         in="fbSourceGraphic"
         values="0 0 0 -1 0 0 0 0 -1 0 0 0 0 -1 0 0 0 0 1 0"
         id="feColorMatrix231" />
      <feGaussianBlur
         id="feGaussianBlur231"
         in="fbSourceGraphic"
         stdDeviation="0.01 3.70378"
         result="blur1" />
      <feTurbulence
         id="feTurbulence231"
         type="fractalNoise"
         baseFrequency="0.0385577"
         numOctaves="4"
         seed="12"
         result="turbulence" />
      <feDisplacementMap
         id="feDisplacementMap231"
         in="blur1"
         in2="turbulence"
         xChannelSelector="R"
         yChannelSelector="G"
         scale="4.73"
         result="map" />
      <feGaussianBlur
         id="feGaussianBlur232"
         in="map"
         stdDeviation="3.87968"
         result="blur2" />
      <feComposite
         id="feComposite232"
         in="blur2"
         in2="map"
         operator="in"
         result="composite" />
    </filter>
  </defs>
  <sodipodi:namedview
     id="namedview78"
     pagecolor="#000000"
     bordercolor="#999999"
     borderopacity="1"
     inkscape:showpageshadow="2"
     inkscape:pageopacity="0"
     inkscape:pagecheckerboard="0"
     inkscape:deskcolor="#d1d1d1"
     inkscape:document-units="pt"
     inkscape:zoom="0.77746212"
     inkscape:cx="349.85627"
     inkscape:cy="405.80755"
     inkscape:window-width="1920"
     inkscape:window-height="1017"
     inkscape:window-x="1912"
     inkscape:window-y="-8"
     inkscape:window-maximized="1"
     inkscape:current-layer="layer6"
     showgrid="false" />
  <g
     inkscape:groupmode="layer"
     id="layer4"
     inkscape:label="Disk Haze"
     style="display:inline"
     transform="translate(-137.33993,-15.982257)">
    <path
       d="m 308.64532,203.73878 c -1.3696,4.4079 -0.4759,6.0559 1.1392,6.9265 1.615,0.8706 3.9513,0.9639 6.3812,1.9261 2.4299,0.9621 4.9533,2.7932 6.6124,5.3331 1.6592,2.5399 2.454,5.7887 2.4567,9.1192 0.003,3.3306 -0.7869,6.7428 -1.0188,10.2867 -0.232,3.5438 0.0937,7.2193 0.9828,10.4212 0.889,3.2019 2.3415,5.9303 4.2236,7.3237 1.8822,1.3934 4.1941,1.4518 6.3803,0.1097 2.1862,-1.342 4.2467,-4.0844 6.1229,-8.2547 1.8761,-4.1702 3.5678,-9.7682 4.5214,-13.8527 0.9537,-4.0845 1.1693,-6.6553 0.826,-8.5243 -0.3433,-1.8689 -1.2454,-3.0359 -1.5708,-5.1365 -0.3254,-2.1006 -0.0741,-5.1347 0.6169,-8.8837 0.6911,-3.7489 1.8219,-8.2127 5.6785,-11.5225 0.8605,6.1625 3.4817,6.8627 5.995,6.17 2.5133,-0.6927 4.9187,-2.7783 6.4719,-4.987 1.5531,-2.2087 2.2539,-4.5406 2.5541,-7.5736 0.3001,-3.0331 0.1996,-6.7675 0.866,-10.0074 0.6664,-3.2398 2.0998,-5.9851 2.5292,-8.622 0.4295,-2.6368 -0.145,-5.165 -1.9231,-8.2062 -1.7781,-3.0412 -4.7599,-6.5953 -5.9565,-11.5597 -1.1965,-4.9645 -0.6079,-11.3394 1.8682,-17.8308 2.4761,-6.4915 6.8395,-13.0997 9.5655,-16.3398 -1.8647,10.907 -0.331,18.1382 1.1536,22.9639 1.4847,4.8256 2.9203,7.2457 3.8516,9.8933 0.9312,2.6477 1.358,5.5229 2.5069,8.2261 1.1489,2.7032 3.0198,5.2344 5.4182,6.9048 2.3983,1.6703 5.3241,2.4798 10.6011,-0.8461 1.9565,9.8593 -7.6493,13.9267 -9.9469,21.2343 -2.2976,7.3075 2.713,17.8552 7.5413,18.1502 4.8282,0.295 9.4741,-9.6627 13.0406,-17.7286 3.5666,-8.0659 6.0539,-14.24 8.1593,-21.8311 2.1055,-7.5912 3.8292,-16.5993 3.1719,-24.9955 -0.6573,-8.3962 -3.6956,-16.1805 -6.5128,-24.1974 -2.8173,-8.0169 -5.4135,-16.2666 -5.676,-24.533523 -0.2624,-8.26695 1.8088,-16.55122 3.9884,-24.82108 2.1797,-8.26987 4.4677,-16.52534 9.3191,-23.33176 4.8514,-6.80642 12.2661,-12.1638 21.0228,-11.91431 -11.1953,10.54501 -14.3706,17.98894 -15.8972,25.94095 -1.5266,7.952 -1.4045,16.41208 -0.6106,22.41449 0.7938,6.00241 2.2593,9.54714 3.969,12.02844 1.7098,2.48131 3.6639,3.89921 6.6804,7.269533 3.0165,3.37036 7.0955,8.69306 10.4483,11.17576 3.3528,2.4826 5.9793,2.1252 7.8051,0.5823 1.8258,-1.5429 2.8508,-4.2713 3.2138,-9.3691 0.3629,-5.097843 0.0637,-12.565163 -5.7984,-24.050083 2.6688,2.43379 5.9566,4.5034 7.9384,7.59103 1.9819,3.08764 2.6577,7.19331 4.7971,9.68632 2.1393,2.49301 5.7423,3.37335 6.9815,6.091333 1.2392,2.718 0.1147,7.2736 -1.4767,11.1437 -1.5913,3.8702 -3.6494,7.055 -5.0736,10.5102 -1.4242,3.4552 -2.2144,7.1808 -2.4381,10.4612 -0.2236,3.2804 0.1193,6.1156 0.8842,9.3027 0.7649,3.1871 1.9517,6.7261 3.9133,9.7564 1.9615,3.0304 4.6976,5.552 6.1016,8.8008 1.404,3.2487 1.4758,7.2246 1.9645,10.82 0.4888,3.5955 1.3944,6.8106 3.0998,9.695 1.7054,2.8844 4.2106,5.4379 6.9266,5.7236 2.716,0.2857 5.6429,-1.6964 8.634,-3.5359 2.991,-1.8396 6.0464,-3.5364 8.6273,-5.9908 2.581,-2.4544 4.6875,-5.6663 5.4597,-9.1352 0.7721,-3.4689 0.2099,-7.1946 0.7782,-10.7637 0.5683,-3.5691 2.267,-6.9814 2.6976,-10.5774 0.4307,-3.5959 -0.4069,-7.3754 -0.9917,-10.9312 4.4294,1.5698 7.3099,5.5091 8.3216,10.0691 1.0116,4.5601 0.1545,9.741 2.4558,13.3349 2.3013,3.5939 7.7611,5.6008 8.892,9.0572 1.1308,3.4563 -2.0674,8.362 -4.5378,12.6606 -2.4704,4.2986 -4.2131,7.9901 -5.2082,12.5402 -0.9951,4.5501 -1.2426,9.959 0.2761,13.5377 1.5187,3.5787 4.8037,5.3272 7.979,6.9754 3.1752,1.6482 6.2408,3.1961 8.674,6.1964 2.4332,3.0002 4.234,7.4529 4.7928,11.9537 0.5589,4.5008 -0.1243,9.0496 0.252,13.5459 0.3762,4.4963 1.8119,8.94 2.7677,13.3506 0.9559,4.4105 1.4319,8.7878 3.194,13.2468 1.7622,4.459 4.8105,8.9997 8.7417,10.0903 3.9313,1.0906 8.7454,-1.2689 11.2986,-4.838 2.5531,-3.5692 2.845,-8.348 3.1005,-12.8665 0.2556,-4.5185 0.4747,-8.7767 2.1773,-12.8729 1.7026,-4.0962 4.8886,-8.0303 8.9197,-10.096 4.0311,-2.0657 8.9074,-2.2628 13.2385,-0.8899 -6.7073,1.3979 -11.309,7.9546 -11.8284,14.3979 -0.5194,6.4433 3.0436,12.7731 4.8122,19.0454 1.7686,6.2722 1.7429,12.487 -0.0361,18.776 -1.7789,6.289 -5.3112,12.6523 -4.0051,19.2823 1.3061,6.6301 7.4505,13.5271 12.5632,12.3472 5.1127,-1.1798 9.1936,-10.4363 14.4208,-13.2165 -0.5936,4.5939 1.4838,7.2355 2.462,10.4403 0.9782,3.2048 0.8572,6.9729 0.6131,10.321 -0.2441,3.348 -0.6114,6.276 -0.6396,9.9129 -0.0282,3.6369 0.2827,7.9827 1.2625,11.3423 0.9798,3.3597 2.6284,5.7332 4.3823,6.7481 1.7539,1.0149 3.613,0.671 5.7955,0.7464 2.1826,0.0754 4.6886,0.57 7.1782,0.3227 2.4895,-0.2473 4.9626,-1.2365 7.3037,-3.5612 2.3412,-2.3247 4.5505,-5.9848 5.787,-10.1231 1.2365,-4.1382 1.5003,-8.7546 0.9562,-12.3818 -0.5441,-3.6271 -1.896,-6.265 -2.7038,-10.8484 -0.8079,-4.5835 -1.0717,-11.1123 -0.5853,-17.0972 0.4863,-5.9848 1.7229,-11.4255 4.5916,-16.7673 3.64,4.2808 1.3525,12.9011 3.5264,18.2265 2.1739,5.3252 8.8091,7.3555 11.8404,2.3654 -1.9245,5.9828 0.697,7.3154 2.9764,8.3416 2.2794,1.0263 4.2167,1.7463 6.7011,0.5319 2.4843,-1.2144 5.5158,-4.3632 8.048,-11.4378 4.4282,11.5135 3.3136,14.482 3.1085,16.9718 -0.4102,4.9796 2.8176,8.0443 4.0056,13.299 0.487,2.1542 0.6312,4.6764 -2.2213,10.0381 -1.2815,2.4089 -3.168,5.3909 -9.7008,13.8704 -3.339,4.334 -7.8918,10.1042 -9.1942,15.5733 -1.3024,5.469 0.6456,10.6371 -1.4251,15.7636 -2.0707,5.1266 -8.1602,10.2116 -10.2454,16.1462 l -1.097,3.8545 c -1.2666,4.3299 -4.0219,10.6734 -6.0345,14.3232 -0.6745,1.223 -1.2655,2.1436 -2.0476,2.9252 -3.8948,3.8923 -12.5262,4.3359 -17.7315,8.1418 -5.2052,3.8059 -6.9843,10.9742 -9.6839,16.1812 -2.6997,5.207 -6.3201,8.4528 -10.4958,11.1646 -4.1756,2.7118 -8.9066,4.8896 -14.0522,8.4962 -5.1455,3.6066 -10.7056,8.6419 -15.4125,13.3435 -9.4139,9.4031 -15.4152,17.4708 -25.0844,27.1542 -4.8347,4.8416 -10.5863,10.0871 -15.6735,15.627 -5.0873,5.5398 -9.5101,11.374 -12.2152,15.6628 -2.705,4.2888 -3.6922,7.0321 -5.6174,8.8735 -3.8504,3.6828 -11.453,3.7576 -25.8552,16.2257 -7.2011,6.234 -16.1021,15.5665 -21.2168,22.7218 -0.9709,1.3582 -1.2106,2.3397 -1.5175,3.2377 -1.3099,3.8333 -3.8431,6.1459 -7.689,7.5047 -4.7469,1.6773 -11.4936,1.9015 -16.7708,0.9304 -1.7868,-0.3288 -3.4051,-0.7946 -7.1224,-0.5922 -2.5865,0.1408 -6.1892,0.6051 -8.5827,-0.5202 -2.839,-1.3347 -3.9769,-4.906 -5.6651,-7.3072 -0.8842,-1.2577 -1.9194,-2.1944 -2.9471,-3.0476 -7.0214,-5.8291 -13.6936,-7.7607 -18.9837,-10.8015 -5.2901,-3.0409 -9.1979,-7.1912 -13.0159,-11.1313 -3.8179,-3.9402 -7.5458,-7.6701 -9.2951,-11.1581 -1.7492,-3.4878 -1.5198,-6.7337 -5.9718,-12.9779 -2.4557,-3.4443 -6.3359,-7.8009 -9.842,-10.9902 -2.8501,-2.5925 -5.4531,-4.4136 -7.2793,-5.4825 -1.984,-1.1612 -3.051,-1.4345 -4.5439,-2.3206 -8.8167,-5.2332 -32.489,-31.8416 -42.618,-44.8017 -2.238,-2.8637 -3.8149,-5.061 -6.7313,-6.8411 -4.5876,-2.8003 -12.4898,-4.5683 -18.4115,-8.2644 -5.9218,-3.6962 -9.8629,-9.3204 -12.0159,-13.8113 -2.1529,-4.491 -2.5176,-7.8487 -5.9602,-13.2418 -3.4427,-5.3932 -9.9633,-12.8217 -16.0557,-17.9017 -6.0924,-5.08 -11.7566,-7.8115 -16.2367,-12.4719 -4.48,-4.6604 -7.7759,-11.2498 -8.5212,-16.0123 -0.7454,-4.7626 1.0599,-7.6983 -2.2298,-13.5192 -3.2898,-5.8208 -11.6745,-14.5267 -15.9044,-21.6128 -4.2299,-7.086 -4.3048,-12.5522 -2.9382,-18.3415 1.3665,-5.7893 4.1745,-11.9018 6.4756,-17.94 0.6841,7.3574 0.8819,12.1057 1.4919,15.502 0.61,3.3964 1.6322,5.4408 3.281,6.5784 1.6487,1.1376 3.9239,1.3684 5.688,2.6379 1.7641,1.2695 3.0171,3.5777 6.0672,4.5652 3.0501,0.9875 7.8973,0.6543 11.43,-0.2211 3.5327,-0.8754 5.7509,-2.293 7.4608,-5.9175 1.7098,-3.6244 2.9114,-9.4557 3.0911,-13.022 0.1797,-3.5663 -0.6624,-4.8675 -1.7326,-5.695 -1.0702,-0.8275 -2.3684,-1.1812 -3.5672,-1.9815 -1.1988,-0.8004 -2.2983,-2.0474 -3.0671,-3.2478 -0.7689,-1.2004 -1.2072,-2.3542 -1.639,-3.5221 -0.4318,-1.1679 -0.8572,-2.3498 -0.5467,-2.7079 0.3105,-0.3581 1.357,0.1076 2.9566,0.8336 1.5997,0.7259 3.7526,1.7121 5.5379,2.1897 1.7854,0.4776 3.2033,0.4466 4.641,-0.3084 1.4377,-0.7549 2.8951,-2.2338 4.2531,-4.2468 1.3579,-2.0129 2.6164,-4.56 3.1194,-6.8822 0.5031,-2.3223 0.2506,-4.4197 0.652,-5.813 0.4014,-1.3933 1.4565,-2.0824 2.4046,-3.9487 0.9479,-1.8663 1.7888,-4.9098 1.591,-11.2265 6.814,8.1981 6.5149,12.741 5.7449,15.8512 -0.7699,3.1101 -2.0107,4.7874 -2.6594,6.7494 -0.6487,1.962 -0.7053,4.2086 -0.4383,6.5581 0.267,2.3496 0.8575,4.8021 0.7641,6.9365 -0.0935,2.1344 -0.871,3.9506 -0.8939,6.3758 -0.0228,2.4252 0.709,5.4594 1.5744,7.7077 0.8654,2.2483 1.8644,3.7107 2.8916,4.7045 1.0273,0.9938 2.0827,1.5189 3.2669,1.3156 1.1843,-0.2033 2.4974,-1.135 4.5682,-3.5246 2.0708,-2.3895 4.8993,-6.2369 6.1981,-9.2356 1.2989,-2.9986 1.0681,-5.1486 0.1996,-7.4972 -0.8685,-2.3486 -2.3746,-4.8959 -3.7009,-6.9554 l -3.6146,-5.2362 c -1.1418,-1.6053 -2.2789,-3.2442 -2.3328,-3.7495 -0.0538,-0.5053 0.9757,0.1229 2.8664,0.1981 1.8906,0.0752 4.6425,-0.4025 6.8896,-0.326 2.2472,0.0766 3.9895,0.7075 5.7122,-0.2073 1.7228,-0.9147 3.4259,-3.3752 4.7716,-4.993 1.3456,-1.6179 2.3339,-2.3931 3.5224,-2.4396 1.1886,-0.0465 2.5774,0.6357 3.7103,0.4696 1.1328,-0.166 2.0096,-1.1804 2.6654,-2.8019 0.6558,-1.6216 1.0906,-3.8504 0.8929,-7.4979 -0.1978,-3.6476 -1.0279,-8.7139 -2.0117,-12.8232 -0.9837,-4.1093 -2.1211,-7.2616 -2.4918,-11.1347 -0.3707,-3.873 0.0251,-8.4668 0.9987,-12.6726 0.9735,-4.2058 2.5246,-8.0238 3.7966,-11.2294 1.2719,-3.2056 2.2647,-5.7989 2.6637,-8.9462 0.3989,-3.1472 0.2041,-6.8485 -1.3117,-9.7418 -1.5158,-2.8934 -4.3526,-4.9788 -5.4052,-8.543 -1.0526,-3.5642 -0.3211,-8.6071 3.9601,-14.6581 z m 240.3744,219.2789 c 2.0503,3.5749 1.9978,6.3875 2.8389,8.1092 0.8411,1.7217 2.576,2.3525 4.0568,2.6767 1.4807,0.3242 2.7074,0.3417 3.0316,-0.2716 0.3242,-0.6133 -0.2541,-1.8575 -1.6078,-3.3602 -1.3537,-1.5027 -3.4829,-3.2638 -8.3195,-7.1541 z m 16.511,29.0138 c 2.4405,-0.1703 6.143,0.9941 6.7859,3.3331 0.6427,2.3391 -1.7743,5.8527 -1.0263,7.5101 0.7481,1.6573 4.661,1.4583 7.1579,-0.2079 2.4968,-1.6662 3.5775,-4.7997 2.7862,-7.1073 -0.7914,-2.3077 -3.4548,-3.7895 -5.4015,-5.8181 -1.9466,-2.0286 -3.1764,-4.604 -4.9203,-6.4697 -1.744,-1.8657 -4.002,-3.0218 -6.3827,-3.9903 -2.3806,-0.9684 -4.8838,-1.7493 -7.6379,-2.2868 -2.754,-0.5375 -5.7589,-0.8317 -7.5481,-2.4986 -1.7892,-1.667 -2.3626,-4.7066 -3.5795,-7.2095 -1.2169,-2.5029 -3.0772,-4.4692 -4.5327,-6.7095 -1.4554,-2.2403 -2.506,-4.7546 -3.8027,-7.1688 -1.2968,-2.4143 -2.8396,-4.7283 -4.6303,-6.5433 -1.7907,-1.815 -3.8292,-3.1308 -5.71,-2.3222 -1.8807,0.8087 -3.6038,3.7418 -5.5206,5.9543 -1.9168,2.2125 -4.0273,3.7043 -6.0129,5.5076 -1.9857,1.8032 -3.8464,3.9178 -5.0202,6.3656 -1.1739,2.4477 -1.661,5.2287 -2.9713,7.5611 -1.3104,2.3323 -3.4441,4.216 -5.7029,5.7736 -2.2588,1.5575 -4.6428,2.7889 -7.1062,3.9673 -2.4634,1.1784 -5.0062,2.3039 -7.1831,3.8365 -2.1769,1.5326 -3.9878,3.4722 -5.7054,5.7114 -1.7176,2.2392 -3.342,4.778 -3.0791,7.2019 0.2628,2.4239 2.4128,4.7328 5.2418,5.9011 2.8291,1.1682 6.3372,1.1958 7.9442,-0.4097 1.607,-1.6055 1.3128,-4.844 2.0396,-7.5916 0.7268,-2.7475 2.4746,-5.0042 5.5512,-4.8411 -2.5791,6.1421 -1.6631,8.6457 -0.7574,9.7143 0.9058,1.0687 1.8014,0.7023 2.5138,0.9669 0.7124,0.2646 1.2416,1.1602 1.2213,2.4629 -0.0204,1.3026 -0.5903,3.0124 -0.1832,5.801 0.4071,2.7885 1.7912,6.6559 3.7655,9.2205 1.9744,2.5647 4.5391,3.8266 6.5745,3.8674 2.0355,0.0407 3.5417,-1.1399 4.2134,-3.1143 0.6717,-1.9743 0.5088,-4.7425 -0.346,-7.3479 -0.8549,-2.6054 -2.4019,-5.0479 -3.3178,-7.2665 -0.916,-2.2187 -1.2009,-4.2134 -0.6921,-6.2488 0.5089,-2.0355 1.8116,-4.1116 2.4629,-6.1674 0.6514,-2.0558 0.6514,-4.0913 1.5978,-5.7501 0.9465,-1.6589 2.8395,-2.9413 5.6484,-6.4829 -0.4885,4.885 -1.3434,7.694 -1.2213,10.0958 0.1222,2.4018 1.2213,4.3965 2.2187,6.2895 0.9973,1.8929 1.8929,3.6841 3.3584,4.5797 1.4656,0.8956 3.501,0.8956 5.5873,0.0407 2.0863,-0.8549 4.2236,-2.5646 5.3227,-7.4497 0.4885,2.4425 1.4045,3.7249 2.1678,4.8952 0.7632,1.1704 1.3739,2.2289 1.4349,3.4501 0.0611,1.2213 -0.4274,2.6054 -1.3637,4.132 l -3.4603,4.9664 c -1.1398,1.7709 -2.0354,3.6435 -2.7275,6.2285 -0.692,2.585 -1.1805,5.8824 -0.2442,8.5489 0.9363,2.6664 3.2974,4.7018 5.4957,5.3328 2.1983,0.631 4.2337,-0.1425 5.6992,-1.4044 1.4655,-1.262 2.3611,-3.0125 2.1372,-5.9334 -0.2238,-2.9208 -1.5673,-7.012 0.1632,-12.506 2.661,3.9591 4.1614,3.3714 5.189,3.7277 1.0276,0.3564 1.5823,1.6569 1.618,3.3309 0.0356,1.674 -0.4478,3.7215 0.4081,5.0131 0.8559,1.2917 3.0511,1.8275 4.96,1.3121 1.9089,-0.5153 3.5315,-2.0818 3.6504,-3.9252 0.119,-1.8433 -1.2656,-3.9635 -0.8452,-6.371 0.4204,-2.4075 2.6457,-5.1023 3.4189,-7.0217 0.7732,-1.9194 0.0943,-3.0634 -0.4012,-4.3592 -0.4956,-1.2959 -0.8079,-2.7438 -0.2934,-4.2767 0.5146,-1.533 1.8559,-3.1512 0.9931,-5.8004 z m -182.6432,-89.9328 c 1.5428,15.2765 3.3861,18.8096 6.5231,22.7635 3.1371,3.9538 7.5679,8.3284 13.3142,4.1174 3.5547,7.3147 3.8751,10.9503 3.6848,13.34 -0.1903,2.3897 -0.8913,3.5334 -1.7726,5.7487 -0.8813,2.2152 -1.9429,5.5021 -3.6846,8.9265 -1.7418,3.4244 -4.1637,6.9863 -4.9143,10.3676 -0.7505,3.3814 0.1702,6.582 1.7709,8.2783 1.6007,1.6962 3.8814,1.8881 6.111,0.9305 2.2297,-0.9575 4.4083,-3.0645 5.2303,-5.6392 0.8221,-2.5748 0.2876,-5.6173 0.7184,-8.1811 0.4308,-2.5638 1.8268,-4.6488 2.4658,-6.7267 0.639,-2.0779 0.5209,-4.1487 1.0477,-6.3405 0.5268,-2.1918 1.6985,-4.5045 3.4906,-6.3346 1.7922,-1.8301 4.205,-3.1775 7.2887,-5.1562 -2.017,5.1345 -4.5209,11.7805 -4.8129,17.0415 -0.2921,5.261 1.6278,9.137 3.2491,11.5708 1.6213,2.4339 2.9441,3.4254 4.3463,3.5753 1.4022,0.1499 2.8839,-0.5419 5.0276,-1.2274 2.1439,-0.6857 4.9498,-1.365 6.8945,-3.853 1.9445,-2.4879 3.0278,-6.7845 3.7774,-10.8098 0.7497,-4.0253 1.1658,-7.7794 2.151,-10.5617 0.9851,-2.7823 2.5393,-4.5928 3.5401,-5.6677 1.0008,-1.0749 1.4483,-1.4142 1.7442,-1.1662 0.296,0.2479 0.4404,1.0832 0.3415,2.534 -0.099,1.4509 -0.4412,3.5174 -0.0518,4.732 0.3894,1.2146 1.5105,1.5773 3.6703,1.1486 2.1598,-0.4286 5.3583,-1.6487 7.8393,-3.437 2.481,-1.7884 4.2446,-4.145 4.9944,-6.296 0.7498,-2.1511 0.4861,-4.0966 -0.61,-6.8092 -1.0961,-2.7126 -3.0245,-6.1924 -3.9887,-10.1828 -0.9642,-3.9904 -0.9642,-8.4914 4.5413,-14.9292 -0.9096,6.5814 3.3678,8.8947 5.6674,12.2991 2.2996,3.4044 2.6214,7.8999 6.0547,6.9122 3.4332,-0.9877 9.978,-7.4586 11.5336,-12.9321 1.5557,-5.4734 -1.8777,-9.9495 -3.3696,-14.6658 -1.492,-4.7162 -1.0424,-9.6725 0.9299,-14.2762 1.9723,-4.6037 5.4673,-8.8548 4.4519,-12.5869 -1.0155,-3.732 -6.5414,-6.9451 -10.6007,-10.5227 -4.0593,-3.5776 -6.652,-7.5197 -8.8951,-11.9649 -2.243,-4.4453 -4.1362,-9.3937 -7.2525,-13.0709 -3.1162,-3.6772 -7.4553,-6.0832 -11.9127,-8.1489 -4.4574,-2.0658 -9.033,-3.7913 -11.9478,-7.8768 -2.9148,-4.0856 -4.1687,-10.5311 -7.1796,-13.1196 -3.0108,-2.5885 -7.7785,-1.3199 -11.9044,-1.4925 -4.1259,-0.1726 -7.6101,-1.7864 -11.555,-0.6822 -3.9448,1.1042 -8.3503,4.9263 -11.9815,8.7582 -3.6312,3.8319 -6.488,7.6736 -9.7715,11.3267 -3.2834,3.6531 -6.9934,7.1176 -11.0548,10.0347 -4.0614,2.9172 -8.4741,5.2868 -12.4232,8.3338 -3.949,3.0469 -7.4344,6.7711 -10.2657,10.6099 -2.8313,3.8387 -5.0085,7.7919 -7.6942,11.7737 -2.6858,3.9816 -5.88,7.9918 -9.6687,11.2781 -3.7886,3.2864 -8.1717,5.8489 -11.7464,9.1638 -3.5748,3.3149 -6.3413,7.3822 -9.0121,11.392 -2.6707,4.0098 -5.2458,7.9622 -5.8686,13.3301 -0.6227,5.368 0.7069,12.1515 2.5978,14.7161 1.8909,2.5646 4.3433,0.9102 6.5283,-2.7759 2.1851,-3.6861 4.103,-9.4039 1.5234,-13.9637 4.4515,2.473 6.3311,4.3525 7.5676,6.9245 1.2365,2.572 1.8301,5.8364 1.5827,8.8536 -0.2473,3.0171 -1.3354,5.7869 -1.6157,8.2435 -0.2803,2.4566 0.2473,4.5999 -0.1813,7.1224 -0.4287,2.5226 -1.8136,5.4243 -2.1928,9.2328 -0.3792,3.8085 0.2473,8.5238 1.7476,12.5302 1.5003,4.0063 3.8745,7.3037 5.9189,9.6614 2.0444,2.3576 3.759,3.7755 5.3088,3.4458 1.5498,-0.3298 2.9347,-2.4071 3.5447,-4.6494 0.61,-2.2422 0.4452,-4.6493 -0.4781,-7.3367 -0.9233,-2.6874 -2.605,-5.6551 -3.6272,-8.3425 -1.0221,-2.6874 -1.3849,-5.0945 -1.6651,-7.7324 -0.2803,-2.6379 -0.4782,-5.5067 3.192,-11.5541 -0.4885,3.2974 0.061,6.7169 1.2111,9.3427 1.15,2.6257 2.9005,4.4576 4.0403,6.4727 1.1399,2.0151 1.6691,4.2133 2.5887,5.5633 0.9196,1.3501 2.2297,1.8518 3.0578,2.4272 0.828,0.5754 1.1742,1.2244 1.0087,2.8308 -0.1654,1.6065 -0.8425,4.1703 -0.9985,5.9786 -0.156,1.8083 0.2092,2.8612 0.7162,3.6581 0.5071,0.7968 1.1561,1.3377 2.1768,0.9735 1.0207,-0.3643 2.4131,-1.6336 3.248,-4.4114 0.835,-2.7777 1.1125,-7.0639 4.0272,-10.9774 -0.7676,3.3197 -0.311,5.1114 0.0371,7.0103 0.3482,1.8989 0.5879,3.9049 0.3912,5.8788 -0.1967,1.974 -0.8299,3.9157 -2.0105,5.7752 -1.1805,1.8594 -2.9086,3.6366 -3.4952,6.6591 -0.5867,3.0224 -0.032,7.2903 1.2307,10.8581 1.2627,3.5679 3.2334,6.4357 5.0209,8.0887 1.7876,1.653 3.3919,2.0911 5.3276,0.6319 1.9357,-1.4592 4.2028,-4.8157 5.1632,-8.2084 0.9604,-3.3928 0.6141,-6.8219 1.6041,-9.9764 0.99,-3.1545 3.3163,-6.0345 5.189,-10.2957 1.8727,-4.2612 3.2917,-9.9036 3.3036,-14.8453 0.012,-4.9417 -1.3831,-9.1827 -3.0998,-15.3001 -1.7168,-6.1175 -3.7554,-14.1115 2.0492,-38.1391 z m -79.0727,12.3392 c -1.8251,6.6567 -4.504,6.7649 -6.4204,7.1323 -1.9165,0.3674 -3.0706,0.9939 -4.1917,1.1423 -1.1211,0.1484 -2.2093,-0.1814 -3.0746,-0.0502 -0.8654,0.1311 -1.508,0.7231 -1.8542,1.3167 -0.3462,0.5935 -0.3961,1.1886 -0.0254,2.4093 0.3708,1.2209 1.1621,3.0674 2.7944,4.5677 1.6322,1.5004 4.1053,2.6545 6.298,2.8853 2.1928,0.2308 4.1053,-0.4617 5.7444,-3.1692 1.6391,-2.7075 3.0047,-7.4301 0.7295,-16.2342 z m 202.2876,-32.3607 c -0.3925,0.1784 -1.0527,0.8207 -1.5433,2.2927 -0.4906,1.4719 -0.8118,3.7735 -0.5709,5.8521 0.2408,2.0786 1.0437,3.9342 1.5344,5.0136 0.4906,1.0794 0.669,1.3828 0.9367,1.3114 0.2676,-0.0714 0.6244,-0.5174 0.8653,-0.9992 0.2409,-0.4817 0.3658,-0.9991 0.7761,-1.4897 0.4104,-0.4907 1.1062,-0.9546 1.5523,-1.6683 0.446,-0.7136 0.6423,-1.6771 0.7404,-2.3373 0.0981,-0.6601 0.0981,-1.017 -0.2498,-1.4006 -0.3479,-0.3836 -1.0437,-0.7939 -1.6147,-1.5879 -0.5709,-0.794 -1.017,-1.9715 -1.2935,-2.8012 l -0.4996,-1.695 c -0.116,-0.3836 -0.2409,-0.669 -0.6334,-0.4906 z m 19.2826,172.6519 c -4.2216,3.9202 -7.0279,7.1163 -9.1774,9.0282 -2.1496,1.9118 -3.6423,2.5392 -5.0594,3.5884 -1.417,1.0493 -2.7583,2.5204 -4.0131,3.6238 -1.2548,1.1034 -2.4231,1.8389 -3.1355,2.9034 -0.7125,1.0645 -0.9691,2.4579 -1.8889,3.7317 -0.9197,1.2738 -2.5024,2.4278 -5.1239,2.8071 -2.6214,0.3792 -6.2815,-0.0165 -9.7428,-1.6256 -3.4612,-1.6091 -6.7236,-4.4316 -8.1601,-6.2972 -1.4364,-1.8656 -1.047,-2.7742 -1.6852,-4.3968 -0.6382,-1.6225 -2.3041,-3.9591 -4.4784,-5.8845 -2.1742,-1.9255 -4.8569,-3.4399 -7.096,-5.4627 -2.2392,-2.0228 -4.0348,-4.554 -6.065,-7.1285 -2.0301,-2.5744 -4.2948,-5.1922 -6.2417,-6.915 -1.947,-1.7228 -3.5762,-2.5508 -4.8182,-3.9798 -1.242,-1.4289 -2.0967,-3.4588 -3.5924,-4.5138 -1.4957,-1.055 -3.6324,-1.1351 -5.1281,-0.2805 -1.4957,0.8548 -2.3504,2.6442 -2.4038,4.3269 -0.0534,1.6827 0.6944,3.2585 2.1367,4.6875 1.4423,1.4289 3.579,2.7109 5.6089,4.5672 2.0299,1.8563 3.953,4.2868 5.0881,5.8627 1.1351,1.5758 1.4823,2.297 2.2969,2.2368 0.8147,-0.0601 2.0967,-0.9014 2.432,-4.5714 2.2114,1.5282 4.2698,3.3162 6.0182,5.3574 1.7484,2.0413 3.1868,4.336 4.6171,6.6172 l 4.3843,6.7835 c 1.5316,2.2344 3.1725,4.4352 4.93,6.3981 l 6.0075,6.2266 c 2.3758,2.5386 5.2534,5.8907 7.5066,6.7266 2.2532,0.8358 3.8819,-0.8446 5.6852,-1.9919 1.8033,-1.1474 3.7811,-1.7617 5.5037,-3.3014 1.7226,-1.5396 3.1899,-4.0047 5.3394,-5.6449 2.1495,-1.6401 4.9811,-2.4553 6.8147,-4.2275 1.8336,-1.7722 2.6691,-4.5015 4.3915,-6.5088 1.7224,-2.0073 4.3316,-3.2926 6.0396,-5.3296 1.7081,-2.0372 2.5149,-4.826 3.0095,-7.4132 z"
       stroke="#000000"
       stroke-width="0"
       fill="#ff7f00"
       fill-opacity="1"
       id="path38"
       style="mix-blend-mode:normal;fill:#c23b24;fill-opacity:1;filter:url(#filter363)" />
  </g>
  <g
     inkscape:groupmode="layer"
     id="g87"
     inkscape:label="Disk Flame copy"
     style="display:inline"
     transform="translate(-137.33993,-15.982257)">
    <path
       d="m 247.33132,326.70968 c 6.6915,1.4487 8.1324,2.6319 9.4635,3.2259 2.0007,0.8929 3.7534,0.4546 4.5957,-1.3291 0.8422,-1.7837 0.7741,-4.9128 1.1396,-7.2428 0.3656,-2.33 1.1648,-3.8609 2.499,-8.8014 -1.0172,5.6797 -0.5291,7.9995 -0.2375,10.6651 0.2915,2.6656 0.3865,5.6769 -0.0184,8.1626 -0.4048,2.4856 -1.3094,4.4457 -1.7215,6.8681 -0.8243,4.8448 0.3216,11.5392 4.836,14.3354 4.5143,2.7962 12.3972,1.6942 16.4061,-0.5039 2.0045,-1.0991 3.0405,-2.4721 5.2545,-5.0683 2.214,-2.5963 5.6061,-6.4157 6.8508,-9.2545 1.2447,-2.8389 0.342,-4.6973 -0.6193,-6.411 l -3.573,-6.0466 -4.2985,-7.8615 c -0.5432,-1.1384 0.5336,0.544 3.3793,1.6938 2.8457,1.1498 7.4602,1.7671 9.7218,0.4357 2.2616,-1.3313 2.1703,-4.6114 3.3255,-4.4256 1.1553,0.1858 3.5571,3.8376 6.8366,4.6397 3.2795,0.8021 7.4366,-1.2454 9.3924,-5.1526 1.9558,-3.9072 1.7103,-9.6742 1.3836,-13.7374 -0.6533,-8.1264 -1.6315,-9.4381 -2.4856,-11.0207 -2.9892,-5.5391 -4.4589,-14.397 -2.5044,-19.4261 0.5584,-1.4369 1.3963,-2.5613 0.6305,-5.1403 -0.383,-1.2894 -1.1669,-2.9426 1.7674,-10.1736 -0.8212,6.2854 1.5576,7.5729 2.716,8.6386 1.1585,1.0655 1.0966,1.9092 1.0991,3.0689 0.0103,4.6388 1.0522,14.3335 9.8284,12.1686 2.1941,-0.5412 4.8715,-1.8236 7.5151,-3.2986 2.6436,-1.4751 5.2533,-3.1427 6.937,-7.1677 1.6836,-4.0249 2.4412,-10.4072 3.2114,-14.6813 0.7703,-4.2741 1.5532,-6.44 2.2503,-8.6259 0.697,-2.1859 1.3082,-4.3918 1.7832,-6.6557 0.4749,-2.264 0.8137,-4.5862 0.5107,-6.8377 -0.3029,-2.2516 -1.2475,-4.4327 -1.3229,-6.6877 -0.0754,-2.2549 0.7184,-4.5839 1.2551,-6.7643 4.5484,9.1859 5.1233,27.491 11.1558,33.5795 6.0325,6.0885 17.5226,-0.0396 20.7165,-7.0977 3.1938,-7.0582 -1.9086,-15.0465 -5.9857,-22.6577 -4.0772,-7.6111 -7.129,-14.8451 -8.1028,-20.8156 -0.9737,-5.9707 0.1308,-10.6779 1.0575,-14.3657 0.9267,-3.6878 1.6758,-6.3561 1.8633,-8.9916 0.1875,-2.6356 -0.1864,-5.2385 -1.5262,-8.1799 -1.3398,-2.9413 -3.6454,-6.2213 -2.5894,-15.4341 3.4685,12.1077 5.9722,13.39 8.3231,16.0768 2.3509,2.6868 4.5492,6.778 8.5848,5.3566 -9.5975,18.8597 -7.0365,32.0899 -0.2238,39.2252 6.8127,7.1352 17.8773,8.1754 23.0527,3.6869 5.1754,-4.4886 4.4616,-14.506 5.2216,-23.3616 0.7599,-8.8555 2.9936,-16.5493 7.1466,-23.308 4.153,-6.7586 10.2254,-12.582 9.955,-20.5492 -0.169,-4.9795 -2.8157,-10.7965 -5.5015,-16.1769 -2.6857,-5.3804 -5.4106,-10.3244 -8.7695,-17.3187 -3.359,-6.9944 -7.3519,-16.039 -3.6441,-36.987193 1.8385,20.452393 7.642,30.786693 11.499,34.910593 3.8569,4.1239 5.7672,2.0373 7.4907,3.531 1.7236,1.4938 3.2603,6.5678 5.2136,7.9849 1.9534,1.4171 4.3232,-0.8227 8.4417,-3.4225 4.1185,-2.5999 9.9856,-5.5598 11.824,-14.0625 2.6223,5.1482 -0.2984,11.2815 -4.003,18.6659 -3.7046,7.3844 -8.1933,16.0198 -10.1039,26.7821 -1.9106,10.7622 -1.2432,23.6513 0.7016,28.771 1.9448,5.1198 5.1669,2.4703 9.1047,1.1455 3.9378,-1.3248 8.5913,-1.3248 8.0329,-12.307 4.7938,8.5607 5.9428,15.4548 5.5598,23.2297 -0.383,7.775 -2.298,16.4309 -0.0766,23.6697 2.2214,7.2388 8.5793,13.0604 14.1712,11.222 5.5918,-1.8384 10.4177,-11.3369 11.4901,-18.2693 1.0724,-6.9324 -1.6086,-11.2986 -0.6511,-15.0904 0.9575,-3.7917 5.5535,-7.0089 10.1714,-10.3638 4.618,-3.3548 9.2577,-6.8472 9.8295,-13.748 7.9358,8.0712 3.383,11.5736 0.378,14.5501 -3.0048,2.9765 -4.4617,5.4272 -5.3051,8.491 -0.8434,3.0637 -1.0732,6.7406 -0.2689,10.877 0.8043,4.1365 2.6428,8.7325 2.03,14.9755 -0.6128,6.243 -3.6769,14.1328 -1.0725,17.7905 2.6045,3.6577 10.8774,3.0832 22.131,-9.6154 0.6885,11.0169 -2.2952,15.0334 -3.0603,18.457 -0.765,3.4237 0.6886,6.2544 2.3717,8.7791 1.6832,2.5247 3.5958,4.7433 3.5958,6.9238 0,2.1804 -1.9126,4.3225 -0.9563,8.7599 0.9563,4.4373 4.7816,11.1698 8.4921,15.2629 3.7105,4.093 7.3063,5.5467 12.6211,5.8262 5.3149,0.2796 12.3488,-0.6149 15.6827,-3.8981 3.334,-3.2831 2.9681,-8.955 8.1204,-19.8383 -0.2964,8.5956 3.1122,10.7691 4.2566,14.8529 1.1445,4.0837 0.0247,10.0775 -2.8446,15.0654 -2.8694,4.9878 -7.4884,8.9696 -9.1534,13.1328 -1.6651,4.1631 -0.3761,8.5075 2.5249,11.5335 2.901,3.026 7.4141,4.7337 9.9536,7.3798 2.5395,2.6461 3.1055,6.2306 4.7247,8.3242 1.6192,2.0936 4.2917,2.6962 6.2949,2.4959 2.0032,-0.2004 3.337,-1.2036 4.5931,-3.483 1.2561,-2.2795 2.4343,-5.8351 5.1814,-10.3067 1.3964,5.5043 2.7136,8.3032 3.3322,11.4521 0.6186,3.1489 0.5385,6.6478 -0.6097,9.6816 -1.1482,3.0339 -3.3644,5.6026 -3.1659,8.1434 0.1986,2.5408 2.812,5.0537 5.941,7.4102 3.1289,2.3564 6.7735,4.5565 9.6247,5.3804 2.8513,0.8239 4.9093,0.2718 6.0638,-0.3306 1.1545,-0.6023 1.4055,-1.2549 2.3341,-0.8533 0.9286,0.4016 2.5349,1.8572 3.5388,3.5388 1.0039,1.6815 1.4054,3.589 2.9624,4.8934 1.5569,1.3045 4.2693,2.006 6.3273,0.8515 2.058,-1.1545 3.4617,-4.165 5.3933,-9.2341 1.9317,-5.0692 4.3913,-12.1969 5.2491,-18.4865 0.8579,-6.2895 0.114,-11.7409 -0.7549,-15.709 -0.8689,-3.9681 -1.8628,-6.453 -2.8298,-9.4781 -0.9669,-3.025 -1.9069,-6.5902 -0.6625,-13.5728 2.0769,9.9302 5.3869,11.2931 6.9229,12.9265 1.5361,1.6334 1.2981,3.5372 1.5912,6.8444 0.293,3.3072 1.1172,8.0177 2.5563,10.0128 1.4391,1.9951 3.4931,1.2749 3.8819,-0.5713 0.3888,-1.8461 -0.8877,-4.8182 2.4147,-10.2753 0.2404,4.1666 1.9828,4.1126 2.9535,5.4973 0.9707,1.3848 1.1698,4.2082 3.1524,3.3564 1.9824,-0.8519 5.7484,-5.3791 7.0268,-12.7435 4.3426,11.7538 2.2877,15.0026 1.1209,18.0501 -1.1668,3.0475 -1.4457,5.8937 -3.1002,8.8531 -1.6545,2.9594 -4.6848,6.032 -8.3092,9.4124 -3.6244,3.3805 -7.8428,7.0688 -9.0474,11.9032 -1.2047,4.8345 0.6047,10.8152 -0.1744,14.7099 -0.779,3.8946 -4.1463,5.7032 -5.9521,9.2536 -1.8058,3.5504 -2.05,8.8425 -3.7394,14.094 -1.6895,5.2514 -4.8241,10.4622 -9.2613,14.472 -4.4373,4.0098 -10.1772,6.8187 -14.5738,10.3807 -4.3965,3.562 -7.4497,7.8772 -10.4011,11.9481 -2.9514,4.0708 -5.801,7.8975 -9.539,11.3504 -3.738,3.4529 -8.3643,6.5321 -12.7744,9.7069 -4.4101,3.1749 -8.604,6.4454 -12.4402,10.0781 -3.8363,3.6327 -7.3149,7.6274 -10.7624,11.6392 l -10.417,11.9421 c -3.5528,3.9014 -7.2419,7.6756 -11.0886,11.2329 -3.8468,3.5573 -7.8511,6.898 -11.5716,10.6376 -3.7204,3.7396 -7.1569,7.8782 -10.247,12.0931 -3.0902,4.2149 -5.834,8.5061 -9.5287,11.9671 -3.6947,3.461 -8.3403,6.0917 -12.69,9.0978 -4.3498,3.0061 -8.4036,6.3876 -12.3414,9.9026 -3.9378,3.515 -7.7596,7.1635 -10.958,10.75 -3.1984,3.5866 -5.7733,7.1112 -8.2377,10.9351 -2.4645,3.8239 -4.8184,7.9471 -10.4054,9.8893 -5.5871,1.942 -14.4072,1.703 -19.8605,1.2448 -5.4534,-0.4581 -7.54,-1.1353 -10.5449,-4.1837 -3.0049,-3.0485 -6.928,-8.4681 -11.5095,-12.6768 -4.5815,-4.2087 -9.8214,-7.2066 -14.0516,-10.2045 -4.2302,-2.9979 -7.4506,-5.9958 -10.9877,-9.1484 -3.5372,-3.1527 -7.391,-6.46 -10.4889,-10.4893 -3.0978,-4.0293 -5.4398,-8.7807 -8.5708,-13.0038 -3.131,-4.2232 -7.0511,-7.9181 -11.1477,-11.392 -4.0966,-3.474 -8.3698,-6.7269 -12.2977,-10.1601 -3.9279,-3.4331 -7.5104,-7.0464 -11.092,-10.7873 -3.5816,-3.7409 -7.1622,-7.6093 -10.934,-11.2334 -3.7718,-3.6241 -7.7346,-7.0038 -11.2098,-11.0129 -3.4752,-4.0091 -6.4627,-8.6475 -9.9892,-12.1928 -3.5265,-3.5453 -7.5919,-5.9974 -11.9342,-8.6836 -4.3422,-2.6863 -8.9612,-5.6068 -12.6442,-9.1776 -3.6831,-3.5707 -6.4303,-7.7918 -9.3391,-12.042 -2.9087,-4.2501 -5.979,-8.5293 -9.3589,-12.5961 -3.3799,-4.0667 -7.0694,-7.9209 -10.9619,-11.5267 -3.8926,-3.6058 -7.9882,-6.9632 -11.37,-9.9063 -3.3819,-2.9431 -6.05,-5.4718 -6.631,-9.6061 -0.5809,-4.1343 0.9253,-9.8743 0.2943,-14.169 -0.631,-4.2948 -3.3992,-7.1445 -7.457,-10.5494 -4.0579,-3.405 -9.4054,-7.3653 -12.8012,-11.4849 -3.3957,-4.1196 -4.8397,-8.3984 -4.8397,-17.6972 2.8179,3.4955 3.4006,5.1372 4.3253,6.5752 0.9247,1.4381 2.1915,2.6725 3.5623,2.5027 1.3709,-0.1698 2.8458,-1.7437 4.5551,-0.5813 1.7092,1.1623 3.6527,5.061 6.3556,8.0985 2.703,3.0375 6.1652,5.2138 9.4049,5.968 3.2398,0.7544 6.2569,0.0866 8.9525,-0.9453 5.3911,-2.0639 9.4961,-5.5847 9.7501,-9.007 0.2541,-3.4223 -3.3427,-6.7462 -4.3662,-10.0206 -1.0235,-3.2744 0.5262,-6.4994 1.0428,-9.9354 0.2583,-1.7181 0.2583,-3.4889 0.106,-5.5525 -0.1523,-2.0636 -0.4569,-4.42 -2.4782,-6.1852 -1.8755,-1.6378 -5.2288,-2.7666 -5.8151,-4.5257 z m 256.7911,8.2445 c -1.9089,-0.7803 -3.7884,-1.209 -5.0526,0.0547 -1.2642,1.2636 -1.9131,4.2196 -1.6955,7.2601 0.2176,3.0405 1.3017,6.1655 0.8873,7.8711 -0.4143,1.7055 -2.327,1.9916 -1.7203,4.6721 0.6068,2.6805 3.733,7.7555 6.3081,9.1228 2.575,1.3674 4.5989,-0.9728 6.172,-3.0665 l 3.942,-5.6228 c 1.2468,-1.6822 2.6182,-3.1994 2.9232,-4.5978 0.3051,-1.3984 -0.4562,-2.6779 -1.5052,-3.8409 -1.049,-1.163 -2.3858,-2.2095 -3.1793,-3.6581 -0.7936,-1.4486 -1.0438,-3.2995 -2.1381,-4.7909 -1.0943,-1.4914 -3.0327,-2.6235 -4.9416,-3.4038 z m -34.009,48.0175 c 4.266,2.0455 4.1671,8.0797 6.3434,9.2833 2.1763,1.2035 6.6278,-2.4236 11.0575,-7.2157 4.4296,-4.7921 8.8373,-10.7491 8.9491,-16.0875 0.1118,-5.3385 -4.0723,-10.0585 -5.6445,-14.7515 -1.5723,-4.693 -0.5327,-9.359 1.2432,-14.2372 1.7759,-4.8781 4.2881,-9.9684 2.9765,-13.9961 -1.3115,-4.0276 -6.4469,-6.9927 -10.3956,-10.423 -3.9487,-3.4302 -6.7107,-7.3256 -9.2753,-11.2167 -2.5644,-3.891 -4.9313,-7.7778 -8.1502,-11.3292 -3.2189,-3.5514 -7.2898,-6.7674 -11.3742,-9.8214 -4.0845,-3.0539 -8.1825,-5.9459 -11.6103,-10.4176 -3.4279,-4.4717 -6.1855,-10.5232 -9.6191,-13.1389 -3.4336,-2.6158 -7.5431,-1.7959 -11.4632,-2.5817 -3.9201,-0.7857 -7.6507,-3.1771 -12.1551,-1.9512 -4.5043,1.2259 -9.7823,6.0691 -13.5313,10.6143 -3.749,4.5452 -5.9689,8.7924 -9.2347,12.4826 -3.2659,3.6903 -7.5776,6.8237 -11.3218,9.6381 -3.7442,2.8144 -6.9209,5.3099 -10.8714,8.7691 -3.9504,3.4591 -8.6746,7.8818 -12.3328,11.7125 -3.6583,3.8307 -6.2504,7.0694 -9.0375,10.7005 -2.7871,3.6311 -5.7691,7.6546 -9.4473,10.9462 -3.6782,3.2917 -8.0527,5.8514 -11.3216,9.3821 -3.269,3.5306 -5.4325,8.0321 -7.9924,12.0736 -2.5599,4.0416 -5.5161,7.6231 -7.0473,10.9301 -1.3458,2.9068 -1.5907,5.6014 -1.9319,4.9765 -1.3589,-2.4888 -5.0651,0.918 -7.2304,5.0796 -0.6186,1.1887 -1.1115,2.4391 -2.834,3.2488 -1.7225,0.8096 -4.6747,1.1786 -7.3484,2.4494 -2.6736,1.2709 -5.0687,3.4438 -5.7507,5.6861 -0.682,2.2423 0.3492,4.554 2.0793,6.8012 3.4601,4.4942 9.7159,8.7297 15.1256,7.3501 2.7048,-0.6898 5.1981,-2.7835 6.4566,-5.435 1.266,-2.6674 1.2824,-5.8994 2.1858,-4.8298 0.8612,1.0196 2.1582,9.871 4.4833,13.4345 2.425,3.7164 5.9682,1.681 8.2298,-6.1592 1.8706,6.3477 1.1921,13.5094 1.4811,19.2011 0.289,5.6917 1.5454,9.9133 3.9882,15.2605 2.4428,5.3472 6.072,11.8199 9.6599,14.187 3.5879,2.3672 7.1345,0.6289 8.1411,-3.653 1.0067,-4.282 -0.5266,-11.1077 2.1443,-15.3613 -0.4946,14.047 3.6939,14.1406 7.5181,9.1008 -0.6924,3.5612 -2.4236,4.9462 -3.4375,6.7927 -1.014,1.8465 -1.3107,4.1547 -0.7846,5.7235 0.5262,1.5687 1.8753,2.3979 3.482,5.2588 1.6066,2.861 3.4708,7.7536 6.5732,11.6005 3.1023,3.8469 7.4428,6.6481 11.1642,5.846 3.7214,-0.8021 6.8237,-5.2074 7.952,-10.4898 1.1283,-5.2823 0.2826,-11.4417 0.9414,-16.2089 0.6588,-4.7671 2.8223,-8.1421 4.6078,-11.6691 1.7855,-3.527 3.193,-7.206 3.0696,-12.3942 -0.1233,-5.1882 -1.7777,-11.8857 -2.039,-21.2186 3.86,16.8913 6.5042,20.8175 9.1368,21.5813 -0.4829,5.7257 -2.6692,6.8703 -3.6367,9.6505 -0.9675,2.7803 -0.7161,7.196 0.3611,10.0259 1.0772,2.8298 2.9803,4.0738 3.83,6.7515 0.8498,2.6778 0.6462,6.7894 1.7657,9.0487 1.1195,2.2594 3.562,2.6664 5.6269,1.6897 2.0648,-0.9767 3.752,-3.3372 5.6504,-5.8204 1.8983,-2.4832 4.0079,-5.0892 4.2251,-8.2536 0.2172,-3.1644 -1.4581,-6.8871 3.5676,-15.6357 -1.1168,6.3287 1.7684,9.307 3.1179,11.6337 1.3495,2.3268 1.1634,4.002 1.939,4.8707 0.7755,0.8686 2.5129,0.9307 6.0031,-1.6724 3.4902,-2.6031 8.7334,-7.8713 12.1562,-11.6672 3.4228,-3.796 5.0254,-6.1197 5.4861,-8.9642 0.4607,-2.8445 -0.2203,-6.2098 1.9156,-13.16 0.1577,6.4137 1.7611,9.6469 3.9532,10.6954 2.192,1.0484 4.9726,-0.0877 7.038,-2.5625 2.0653,-2.4748 3.4153,-6.2883 5.1785,-9.1842 1.7631,-2.896 3.9394,-4.8744 5.3738,-8.584 1.4344,-3.7096 2.1269,-9.1503 0.6408,-14.3861 z m 25.1011,77.1972 c -0.4833,2.2107 0.3565,3.7014 0.7334,4.8438 0.3769,1.1424 0.2909,1.9365 0.5548,2.2986 0.264,0.3621 0.8779,0.2922 1.1443,0.4686 0.2663,0.1764 0.185,0.5991 0.0366,1.573 -0.1484,0.974 -0.364,2.4991 -0.1233,4.034 0.4814,3.0699 2.7882,6.1791 5.3299,8.3103 2.5417,2.131 5.3182,3.284 8.1721,3.0667 2.8538,-0.2174 5.7848,-1.805 7.088,-4.1983 1.3032,-2.3933 0.9785,-5.5921 2.2488,-8.3407 0.6352,-1.3743 1.6691,-2.636 -0.6441,-8.3137 3.9139,3.593 5.3795,5.6081 5.7894,7.4817 0.41,1.8735 -0.2356,3.6055 0.0217,5.5401 0.2573,1.9346 1.4175,4.0718 4.4707,-0.569 1.0926,13.9252 -4.5797,15.4658 -5.237,24.9294 -0.0948,1.3648 -0.0853,2.8943 0.1069,5.3904 0.0962,1.248 0.238,2.7377 -0.3394,4.1233 -0.5774,1.3856 -1.8739,2.6672 -3.728,4.8851 -1.8542,2.2179 -4.266,5.3723 -7.3138,7.9215 -3.0479,2.5494 -6.7318,4.4936 -9.0421,7.175 -2.3104,2.6813 -3.2473,6.0996 -6.3983,7.2138 -3.1511,1.1143 -8.5164,-0.0756 -12.2696,-3.2981 -3.7532,-3.2225 -5.8942,-8.4777 -9.1797,-12.263 -3.2855,-3.7853 -7.7155,-6.1008 -11.8121,-9.7684 -4.0967,-3.6677 -7.8601,-8.6876 -11.3035,-13.1877 -3.4434,-4.5001 -6.5667,-8.4805 -10.4996,-8.8979 -3.9328,-0.4174 -8.6752,2.7281 -8.9175,6.1052 -0.2424,3.3771 4.0154,6.9858 8.3965,11.5103 4.3811,4.5246 8.8857,9.965 11.5247,11.2807 2.639,1.3158 3.4125,-1.4931 5.4589,0.0239 2.0464,1.517 5.3658,7.3598 8.6145,11.6415 3.2488,4.2816 6.427,7.002 9.9896,11.3369 3.5625,4.3349 7.5095,10.2844 12.1087,10.7759 4.5992,0.4915 9.8507,-4.475 14.5729,-9.4618 4.7222,-4.9869 8.9152,-9.9941 12.3299,-13.3042 3.4147,-3.3103 6.051,-4.9236 7.7063,-7.0423 1.6553,-2.1186 2.3295,-4.7426 3.1626,-6.8018 0.8332,-2.0591 1.8251,-3.5534 2.6249,-4.8848 1.5995,-2.6629 2.4301,-4.6745 2.3471,-6.7475 -0.0415,-1.0365 -0.3114,-2.0884 -0.5322,-3.3571 -0.4358,-2.5047 -0.6801,-5.8547 0.1085,-8.3781 1.9977,2.8914 4.1265,3.4226 6.2163,3.764 1.7465,0.2853 3.4658,0.4381 5.0153,0.1282 1.5495,-0.3098 2.9293,-1.0825 3.8382,-3.116 0.909,-2.0336 1.3471,-5.3281 1.185,-8.145 -0.1621,-2.817 -0.9244,-5.1564 0.968,-8.0444 0,3.3493 0.4081,4.661 0.9597,5.5518 0.5979,0.9656 1.3644,1.4366 1.8889,2.238 0.5245,0.8014 0.807,1.9332 1.2958,2.6019 0.4889,0.6686 1.1842,0.8741 1.8924,0.9634 0.7082,0.0894 1.4294,0.0627 2.7247,-0.6451 1.2954,-0.7078 3.1651,-2.0966 4.5005,-3.6191 1.3355,-1.5224 2.1367,-3.1784 2.6576,-4.6473 0.5208,-1.469 0.7612,-2.7511 1.2954,-3.2452 0.5341,-0.4941 1.3621,-0.2003 1.923,-0.6544 0.5609,-0.454 0.8547,-1.6559 0.4274,-2.7109 -0.4274,-1.055 -1.5759,-1.9632 -1.8096,-3.579 -0.2337,-1.6159 0.4474,-3.9396 0.7391,-7.3907 1.7696,2.5488 1.2255,3.6864 1.8438,4.6344 0.6182,0.948 2.3988,1.7064 3.9321,1.8548 1.5333,0.1484 2.8193,-0.3133 4.2866,-1.5168 1.4674,-1.2036 3.1161,-3.1491 4.534,-4.7153 1.4179,-1.5663 2.605,-2.7534 2.6874,-4.2043 0.0824,-1.4508 -0.9397,-3.1655 -2.5555,-4.7977 -1.6158,-1.6322 -3.825,-3.182 -5.045,-4.3361 -1.2201,-1.1541 -1.4509,-1.9125 -2.5885,-3.4952 -1.1376,-1.5828 -3.182,-3.9899 -5.5726,-5.6881 -2.3907,-1.6981 -5.1276,-2.6874 -7.2544,-3.4293 -2.1268,-0.7419 -3.6436,-1.2365 -3.6601,-1.5663 -0.0165,-0.3297 1.4674,-0.4946 2.1763,-0.7254 0.7089,-0.2308 0.643,-0.5276 -0.0494,-1.7311 -0.6925,-1.2036 -2.0115,-3.314 -3.5777,-5.0946 -1.5663,-1.7805 -3.3799,-3.2314 -4.9791,-4.6658 -1.5993,-1.4344 -2.9842,-2.8523 -4.1466,-2.9182 -1.1623,-0.066 -2.102,1.22 -2.6602,1.5592 -0.9438,0.5734 -1.8341,-1.8997 -2.4771,-4.3232 -0.643,-2.4237 -1.0387,-4.7978 -2.9512,-7.5676 -1.9125,-2.7698 -5.3418,-5.9354 -7.9303,-7.5181 -2.5885,-1.5828 -4.3361,-1.5828 -6.941,0.2803 -2.605,1.863 -6.0673,5.5891 -9.3482,8.8535 -3.2809,3.2644 -6.3805,6.0673 -9.4801,9.8263 -3.0996,3.7591 -6.1991,8.4744 -10.2879,12.3818 -4.0888,3.9075 -9.1668,7.007 -12.7116,10.0242 -3.5447,3.0171 -5.5561,5.9518 -6.2815,8.4578 -0.7254,2.506 -0.1649,4.5834 0.676,6.3475 0.8408,1.7642 1.9619,3.215 3.469,4.5283 1.507,1.3133 3.3999,2.4891 4.9954,3.3474 1.5955,0.8583 2.8935,1.3992 4.0981,1.7541 1.2045,0.355 2.3155,0.524 2.881,-0.2728 0.3887,-0.5475 0.5198,-1.5513 0.5487,-2.6873 0.0289,-1.1359 -0.0442,-2.404 1.3504,-5.1619 z"
       stroke="#000000"
       stroke-width="0"
       fill="#ffff00"
       fill-opacity="1"
       id="path87"
       style="display:inline;mix-blend-mode:normal;fill:#eba22d;fill-opacity:1;filter:url(#filter10)" />
  </g>
  <g
     inkscape:groupmode="layer"
     id="layer3"
     inkscape:label="Disk Flame"
     style="display:inline"
     transform="translate(-137.33993,-15.982257)">
    <path
       d="m 247.33132,326.70968 c 6.6915,1.4487 8.1324,2.6319 9.4635,3.2259 2.0007,0.8929 3.7534,0.4546 4.5957,-1.3291 0.8422,-1.7837 0.7741,-4.9128 1.1396,-7.2428 0.3656,-2.33 1.1648,-3.8609 2.499,-8.8014 -1.0172,5.6797 -0.5291,7.9995 -0.2375,10.6651 0.2915,2.6656 0.3865,5.6769 -0.0184,8.1626 -0.4048,2.4856 -1.3094,4.4457 -1.7215,6.8681 -0.8243,4.8448 0.3216,11.5392 4.836,14.3354 4.5143,2.7962 12.3972,1.6942 16.4061,-0.5039 2.0045,-1.0991 3.0405,-2.4721 5.2545,-5.0683 2.214,-2.5963 5.6061,-6.4157 6.8508,-9.2545 1.2447,-2.8389 0.342,-4.6973 -0.6193,-6.411 l -3.573,-6.0466 -4.2985,-7.8615 c -0.5432,-1.1384 0.5336,0.544 3.3793,1.6938 2.8457,1.1498 7.4602,1.7671 9.7218,0.4357 2.2616,-1.3313 2.1703,-4.6114 3.3255,-4.4256 1.1553,0.1858 3.5571,3.8376 6.8366,4.6397 3.2795,0.8021 7.4366,-1.2454 9.3924,-5.1526 1.9558,-3.9072 1.7103,-9.6742 1.3836,-13.7374 -0.6533,-8.1264 -1.6315,-9.4381 -2.4856,-11.0207 -2.9892,-5.5391 -4.4589,-14.397 -2.5044,-19.4261 0.5584,-1.4369 1.3963,-2.5613 0.6305,-5.1403 -0.383,-1.2894 -1.1669,-2.9426 1.7674,-10.1736 -0.8212,6.2854 1.5576,7.5729 2.716,8.6386 1.1585,1.0655 1.0966,1.9092 1.0991,3.0689 0.0103,4.6388 1.0522,14.3335 9.8284,12.1686 2.1941,-0.5412 4.8715,-1.8236 7.5151,-3.2986 2.6436,-1.4751 5.2533,-3.1427 6.937,-7.1677 1.6836,-4.0249 2.4412,-10.4072 3.2114,-14.6813 0.7703,-4.2741 1.5532,-6.44 2.2503,-8.6259 0.697,-2.1859 1.3082,-4.3918 1.7832,-6.6557 0.4749,-2.264 0.8137,-4.5862 0.5107,-6.8377 -0.3029,-2.2516 -1.2475,-4.4327 -1.3229,-6.6877 -0.0754,-2.2549 0.7184,-4.5839 1.2551,-6.7643 4.5484,9.1859 5.1233,27.491 11.1558,33.5795 6.0325,6.0885 17.5226,-0.0396 20.7165,-7.0977 3.1938,-7.0582 -1.9086,-15.0465 -5.9857,-22.6577 -4.0772,-7.6111 -7.129,-14.8451 -8.1028,-20.8156 -0.9737,-5.9707 0.1308,-10.6779 1.0575,-14.3657 0.9267,-3.6878 1.6758,-6.3561 1.8633,-8.9916 0.1875,-2.6356 -0.1864,-5.2385 -1.5262,-8.1799 -1.3398,-2.9413 -3.6454,-6.2213 -2.5894,-15.4341 3.4685,12.1077 5.9722,13.39 8.3231,16.0768 2.3509,2.6868 4.5492,6.778 8.5848,5.3566 -9.5975,18.8597 -7.0365,32.0899 -0.2238,39.2252 6.8127,7.1352 17.8773,8.1754 23.0527,3.6869 5.1754,-4.4886 4.4616,-14.506 5.2216,-23.3616 0.7599,-8.8555 2.9936,-16.5493 7.1466,-23.308 4.153,-6.7586 10.2254,-12.582 9.955,-20.5492 -0.169,-4.9795 -2.8157,-10.7965 -5.5015,-16.1769 -2.6857,-5.3804 -5.4106,-10.3244 -8.7695,-17.3187 -3.359,-6.9944 -7.3519,-16.039 -3.6441,-36.987193 1.8385,20.452393 7.642,30.786693 11.499,34.910593 3.8569,4.1239 5.7672,2.0373 7.4907,3.531 1.7236,1.4938 3.2603,6.5678 5.2136,7.9849 1.9534,1.4171 4.3232,-0.8227 8.4417,-3.4225 4.1185,-2.5999 9.9856,-5.5598 11.824,-14.0625 2.6223,5.1482 -0.2984,11.2815 -4.003,18.6659 -3.7046,7.3844 -8.1933,16.0198 -10.1039,26.7821 -1.9106,10.7622 -1.2432,23.6513 0.7016,28.771 1.9448,5.1198 5.1669,2.4703 9.1047,1.1455 3.9378,-1.3248 8.5913,-1.3248 8.0329,-12.307 4.7938,8.5607 5.9428,15.4548 5.5598,23.2297 -0.383,7.775 -2.298,16.4309 -0.0766,23.6697 2.2214,7.2388 8.5793,13.0604 14.1712,11.222 5.5918,-1.8384 10.4177,-11.3369 11.4901,-18.2693 1.0724,-6.9324 -1.6086,-11.2986 -0.6511,-15.0904 0.9575,-3.7917 5.5535,-7.0089 10.1714,-10.3638 4.618,-3.3548 9.2577,-6.8472 9.8295,-13.748 7.9358,8.0712 3.383,11.5736 0.378,14.5501 -3.0048,2.9765 -4.4617,5.4272 -5.3051,8.491 -0.8434,3.0637 -1.0732,6.7406 -0.2689,10.877 0.8043,4.1365 2.6428,8.7325 2.03,14.9755 -0.6128,6.243 -3.6769,14.1328 -1.0725,17.7905 2.6045,3.6577 10.8774,3.0832 22.131,-9.6154 0.6885,11.0169 -2.2952,15.0334 -3.0603,18.457 -0.765,3.4237 0.6886,6.2544 2.3717,8.7791 1.6832,2.5247 3.5958,4.7433 3.5958,6.9238 0,2.1804 -1.9126,4.3225 -0.9563,8.7599 0.9563,4.4373 4.7816,11.1698 8.4921,15.2629 3.7105,4.093 7.3063,5.5467 12.6211,5.8262 5.3149,0.2796 12.3488,-0.6149 15.6827,-3.8981 3.334,-3.2831 2.9681,-8.955 8.1204,-19.8383 -0.2964,8.5956 3.1122,10.7691 4.2566,14.8529 1.1445,4.0837 0.0247,10.0775 -2.8446,15.0654 -2.8694,4.9878 -7.4884,8.9696 -9.1534,13.1328 -1.6651,4.1631 -0.3761,8.5075 2.5249,11.5335 2.901,3.026 7.4141,4.7337 9.9536,7.3798 2.5395,2.6461 3.1055,6.2306 4.7247,8.3242 1.6192,2.0936 4.2917,2.6962 6.2949,2.4959 2.0032,-0.2004 3.337,-1.2036 4.5931,-3.483 1.2561,-2.2795 2.4343,-5.8351 5.1814,-10.3067 1.3964,5.5043 2.7136,8.3032 3.3322,11.4521 0.6186,3.1489 0.5385,6.6478 -0.6097,9.6816 -1.1482,3.0339 -3.3644,5.6026 -3.1659,8.1434 0.1986,2.5408 2.812,5.0537 5.941,7.4102 3.1289,2.3564 6.7735,4.5565 9.6247,5.3804 2.8513,0.8239 4.9093,0.2718 6.0638,-0.3306 1.1545,-0.6023 1.4055,-1.2549 2.3341,-0.8533 0.9286,0.4016 2.5349,1.8572 3.5388,3.5388 1.0039,1.6815 1.4054,3.589 2.9624,4.8934 1.5569,1.3045 4.2693,2.006 6.3273,0.8515 2.058,-1.1545 3.4617,-4.165 5.3933,-9.2341 1.9317,-5.0692 4.3913,-12.1969 5.2491,-18.4865 0.8579,-6.2895 0.114,-11.7409 -0.7549,-15.709 -0.8689,-3.9681 -1.8628,-6.453 -2.8298,-9.4781 -0.9669,-3.025 -1.9069,-6.5902 -0.6625,-13.5728 2.0769,9.9302 5.3869,11.2931 6.9229,12.9265 1.5361,1.6334 1.2981,3.5372 1.5912,6.8444 0.293,3.3072 1.1172,8.0177 2.5563,10.0128 1.4391,1.9951 3.4931,1.2749 3.8819,-0.5713 0.3888,-1.8461 -0.8877,-4.8182 2.4147,-10.2753 0.2404,4.1666 1.9828,4.1126 2.9535,5.4973 0.9707,1.3848 1.1698,4.2082 3.1524,3.3564 1.9824,-0.8519 5.7484,-5.3791 7.0268,-12.7435 4.3426,11.7538 2.2877,15.0026 1.1209,18.0501 -1.1668,3.0475 -1.4457,5.8937 -3.1002,8.8531 -1.6545,2.9594 -4.6848,6.032 -8.3092,9.4124 -3.6244,3.3805 -7.8428,7.0688 -9.0474,11.9032 -1.2047,4.8345 0.6047,10.8152 -0.1744,14.7099 -0.779,3.8946 -4.1463,5.7032 -5.9521,9.2536 -1.8058,3.5504 -2.05,8.8425 -3.7394,14.094 -1.6895,5.2514 -4.8241,10.4622 -9.2613,14.472 -4.4373,4.0098 -10.1772,6.8187 -14.5738,10.3807 -4.3965,3.562 -7.4497,7.8772 -10.4011,11.9481 -2.9514,4.0708 -5.801,7.8975 -9.539,11.3504 -3.738,3.4529 -8.3643,6.5321 -12.7744,9.7069 -4.4101,3.1749 -8.604,6.4454 -12.4402,10.0781 -3.8363,3.6327 -7.3149,7.6274 -10.7624,11.6392 l -10.417,11.9421 c -3.5528,3.9014 -7.2419,7.6756 -11.0886,11.2329 -3.8468,3.5573 -7.8511,6.898 -11.5716,10.6376 -3.7204,3.7396 -7.1569,7.8782 -10.247,12.0931 -3.0902,4.2149 -5.834,8.5061 -9.5287,11.9671 -3.6947,3.461 -8.3403,6.0917 -12.69,9.0978 -4.3498,3.0061 -8.4036,6.3876 -12.3414,9.9026 -3.9378,3.515 -7.7596,7.1635 -10.958,10.75 -3.1984,3.5866 -5.7733,7.1112 -8.2377,10.9351 -2.4645,3.8239 -4.8184,7.9471 -10.4054,9.8893 -5.5871,1.942 -14.4072,1.703 -19.8605,1.2448 -5.4534,-0.4581 -7.54,-1.1353 -10.5449,-4.1837 -3.0049,-3.0485 -6.928,-8.4681 -11.5095,-12.6768 -4.5815,-4.2087 -9.8214,-7.2066 -14.0516,-10.2045 -4.2302,-2.9979 -7.4506,-5.9958 -10.9877,-9.1484 -3.5372,-3.1527 -7.391,-6.46 -10.4889,-10.4893 -3.0978,-4.0293 -5.4398,-8.7807 -8.5708,-13.0038 -3.131,-4.2232 -7.0511,-7.9181 -11.1477,-11.392 -4.0966,-3.474 -8.3698,-6.7269 -12.2977,-10.1601 -3.9279,-3.4331 -7.5104,-7.0464 -11.092,-10.7873 -3.5816,-3.7409 -7.1622,-7.6093 -10.934,-11.2334 -3.7718,-3.6241 -7.7346,-7.0038 -11.2098,-11.0129 -3.4752,-4.0091 -6.4627,-8.6475 -9.9892,-12.1928 -3.5265,-3.5453 -7.5919,-5.9974 -11.9342,-8.6836 -4.3422,-2.6863 -8.9612,-5.6068 -12.6442,-9.1776 -3.6831,-3.5707 -6.4303,-7.7918 -9.3391,-12.042 -2.9087,-4.2501 -5.979,-8.5293 -9.3589,-12.5961 -3.3799,-4.0667 -7.0694,-7.9209 -10.9619,-11.5267 -3.8926,-3.6058 -7.9882,-6.9632 -11.37,-9.9063 -3.3819,-2.9431 -6.05,-5.4718 -6.631,-9.6061 -0.5809,-4.1343 0.9253,-9.8743 0.2943,-14.169 -0.631,-4.2948 -3.3992,-7.1445 -7.457,-10.5494 -4.0579,-3.405 -9.4054,-7.3653 -12.8012,-11.4849 -3.3957,-4.1196 -4.8397,-8.3984 -4.8397,-17.6972 2.8179,3.4955 3.4006,5.1372 4.3253,6.5752 0.9247,1.4381 2.1915,2.6725 3.5623,2.5027 1.3709,-0.1698 2.8458,-1.7437 4.5551,-0.5813 1.7092,1.1623 3.6527,5.061 6.3556,8.0985 2.703,3.0375 6.1652,5.2138 9.4049,5.968 3.2398,0.7544 6.2569,0.0866 8.9525,-0.9453 5.3911,-2.0639 9.4961,-5.5847 9.7501,-9.007 0.2541,-3.4223 -3.3427,-6.7462 -4.3662,-10.0206 -1.0235,-3.2744 0.5262,-6.4994 1.0428,-9.9354 0.2583,-1.7181 0.2583,-3.4889 0.106,-5.5525 -0.1523,-2.0636 -0.4569,-4.42 -2.4782,-6.1852 -1.8755,-1.6378 -5.2288,-2.7666 -5.8151,-4.5257 z m 256.7911,8.2445 c -1.9089,-0.7803 -3.7884,-1.209 -5.0526,0.0547 -1.2642,1.2636 -1.9131,4.2196 -1.6955,7.2601 0.2176,3.0405 1.3017,6.1655 0.8873,7.8711 -0.4143,1.7055 -2.327,1.9916 -1.7203,4.6721 0.6068,2.6805 3.733,7.7555 6.3081,9.1228 2.575,1.3674 4.5989,-0.9728 6.172,-3.0665 l 3.942,-5.6228 c 1.2468,-1.6822 2.6182,-3.1994 2.9232,-4.5978 0.3051,-1.3984 -0.4562,-2.6779 -1.5052,-3.8409 -1.049,-1.163 -2.3858,-2.2095 -3.1793,-3.6581 -0.7936,-1.4486 -1.0438,-3.2995 -2.1381,-4.7909 -1.0943,-1.4914 -3.0327,-2.6235 -4.9416,-3.4038 z m -34.009,48.0175 c 4.266,2.0455 4.1671,8.0797 6.3434,9.2833 2.1763,1.2035 6.6278,-2.4236 11.0575,-7.2157 4.4296,-4.7921 8.8373,-10.7491 8.9491,-16.0875 0.1118,-5.3385 -4.0723,-10.0585 -5.6445,-14.7515 -1.5723,-4.693 -0.5327,-9.359 1.2432,-14.2372 1.7759,-4.8781 4.2881,-9.9684 2.9765,-13.9961 -1.3115,-4.0276 -6.4469,-6.9927 -10.3956,-10.423 -3.9487,-3.4302 -6.7107,-7.3256 -9.2753,-11.2167 -2.5644,-3.891 -4.9313,-7.7778 -8.1502,-11.3292 -3.2189,-3.5514 -7.2898,-6.7674 -11.3742,-9.8214 -4.0845,-3.0539 -8.1825,-5.9459 -11.6103,-10.4176 -3.4279,-4.4717 -6.1855,-10.5232 -9.6191,-13.1389 -3.4336,-2.6158 -7.5431,-1.7959 -11.4632,-2.5817 -3.9201,-0.7857 -7.6507,-3.1771 -12.1551,-1.9512 -4.5043,1.2259 -9.7823,6.0691 -13.5313,10.6143 -3.749,4.5452 -5.9689,8.7924 -9.2347,12.4826 -3.2659,3.6903 -7.5776,6.8237 -11.3218,9.6381 -3.7442,2.8144 -6.9209,5.3099 -10.8714,8.7691 -3.9504,3.4591 -8.6746,7.8818 -12.3328,11.7125 -3.6583,3.8307 -6.2504,7.0694 -9.0375,10.7005 -2.7871,3.6311 -5.7691,7.6546 -9.4473,10.9462 -3.6782,3.2917 -8.0527,5.8514 -11.3216,9.3821 -3.269,3.5306 -5.4325,8.0321 -7.9924,12.0736 -2.5599,4.0416 -5.5161,7.6231 -7.0473,10.9301 -1.3458,2.9068 -1.5907,5.6014 -1.9319,4.9765 -1.3589,-2.4888 -5.0651,0.918 -7.2304,5.0796 -0.6186,1.1887 -1.1115,2.4391 -2.834,3.2488 -1.7225,0.8096 -4.6747,1.1786 -7.3484,2.4494 -2.6736,1.2709 -5.0687,3.4438 -5.7507,5.6861 -0.682,2.2423 0.3492,4.554 2.0793,6.8012 3.4601,4.4942 9.7159,8.7297 15.1256,7.3501 2.7048,-0.6898 5.1981,-2.7835 6.4566,-5.435 1.266,-2.6674 1.2824,-5.8994 2.1858,-4.8298 0.8612,1.0196 2.1582,9.871 4.4833,13.4345 2.425,3.7164 5.9682,1.681 8.2298,-6.1592 1.8706,6.3477 1.1921,13.5094 1.4811,19.2011 0.289,5.6917 1.5454,9.9133 3.9882,15.2605 2.4428,5.3472 6.072,11.8199 9.6599,14.187 3.5879,2.3672 7.1345,0.6289 8.1411,-3.653 1.0067,-4.282 -0.5266,-11.1077 2.1443,-15.3613 -0.4946,14.047 3.6939,14.1406 7.5181,9.1008 -0.6924,3.5612 -2.4236,4.9462 -3.4375,6.7927 -1.014,1.8465 -1.3107,4.1547 -0.7846,5.7235 0.5262,1.5687 1.8753,2.3979 3.482,5.2588 1.6066,2.861 3.4708,7.7536 6.5732,11.6005 3.1023,3.8469 7.4428,6.6481 11.1642,5.846 3.7214,-0.8021 6.8237,-5.2074 7.952,-10.4898 1.1283,-5.2823 0.2826,-11.4417 0.9414,-16.2089 0.6588,-4.7671 2.8223,-8.1421 4.6078,-11.6691 1.7855,-3.527 3.193,-7.206 3.0696,-12.3942 -0.1233,-5.1882 -1.7777,-11.8857 -2.039,-21.2186 3.86,16.8913 6.5042,20.8175 9.1368,21.5813 -0.4829,5.7257 -2.6692,6.8703 -3.6367,9.6505 -0.9675,2.7803 -0.7161,7.196 0.3611,10.0259 1.0772,2.8298 2.9803,4.0738 3.83,6.7515 0.8498,2.6778 0.6462,6.7894 1.7657,9.0487 1.1195,2.2594 3.562,2.6664 5.6269,1.6897 2.0648,-0.9767 3.752,-3.3372 5.6504,-5.8204 1.8983,-2.4832 4.0079,-5.0892 4.2251,-8.2536 0.2172,-3.1644 -1.4581,-6.8871 3.5676,-15.6357 -1.1168,6.3287 1.7684,9.307 3.1179,11.6337 1.3495,2.3268 1.1634,4.002 1.939,4.8707 0.7755,0.8686 2.5129,0.9307 6.0031,-1.6724 3.4902,-2.6031 8.7334,-7.8713 12.1562,-11.6672 3.4228,-3.796 5.0254,-6.1197 5.4861,-8.9642 0.4607,-2.8445 -0.2203,-6.2098 1.9156,-13.16 0.1577,6.4137 1.7611,9.6469 3.9532,10.6954 2.192,1.0484 4.9726,-0.0877 7.038,-2.5625 2.0653,-2.4748 3.4153,-6.2883 5.1785,-9.1842 1.7631,-2.896 3.9394,-4.8744 5.3738,-8.584 1.4344,-3.7096 2.1269,-9.1503 0.6408,-14.3861 z m 25.1011,77.1972 c -0.4833,2.2107 0.3565,3.7014 0.7334,4.8438 0.3769,1.1424 0.2909,1.9365 0.5548,2.2986 0.264,0.3621 0.8779,0.2922 1.1443,0.4686 0.2663,0.1764 0.185,0.5991 0.0366,1.573 -0.1484,0.974 -0.364,2.4991 -0.1233,4.034 0.4814,3.0699 2.7882,6.1791 5.3299,8.3103 2.5417,2.131 5.3182,3.284 8.1721,3.0667 2.8538,-0.2174 5.7848,-1.805 7.088,-4.1983 1.3032,-2.3933 0.9785,-5.5921 2.2488,-8.3407 0.6352,-1.3743 1.6691,-2.636 -0.6441,-8.3137 3.9139,3.593 5.3795,5.6081 5.7894,7.4817 0.41,1.8735 -0.2356,3.6055 0.0217,5.5401 0.2573,1.9346 1.4175,4.0718 4.4707,-0.569 1.0926,13.9252 -4.5797,15.4658 -5.237,24.9294 -0.0948,1.3648 -0.0853,2.8943 0.1069,5.3904 0.0962,1.248 0.238,2.7377 -0.3394,4.1233 -0.5774,1.3856 -1.8739,2.6672 -3.728,4.8851 -1.8542,2.2179 -4.266,5.3723 -7.3138,7.9215 -3.0479,2.5494 -6.7318,4.4936 -9.0421,7.175 -2.3104,2.6813 -3.2473,6.0996 -6.3983,7.2138 -3.1511,1.1143 -8.5164,-0.0756 -12.2696,-3.2981 -3.7532,-3.2225 -5.8942,-8.4777 -9.1797,-12.263 -3.2855,-3.7853 -7.7155,-6.1008 -11.8121,-9.7684 -4.0967,-3.6677 -7.8601,-8.6876 -11.3035,-13.1877 -3.4434,-4.5001 -6.5667,-8.4805 -10.4996,-8.8979 -3.9328,-0.4174 -8.6752,2.7281 -8.9175,6.1052 -0.2424,3.3771 4.0154,6.9858 8.3965,11.5103 4.3811,4.5246 8.8857,9.965 11.5247,11.2807 2.639,1.3158 3.4125,-1.4931 5.4589,0.0239 2.0464,1.517 5.3658,7.3598 8.6145,11.6415 3.2488,4.2816 6.427,7.002 9.9896,11.3369 3.5625,4.3349 7.5095,10.2844 12.1087,10.7759 4.5992,0.4915 9.8507,-4.475 14.5729,-9.4618 4.7222,-4.9869 8.9152,-9.9941 12.3299,-13.3042 3.4147,-3.3103 6.051,-4.9236 7.7063,-7.0423 1.6553,-2.1186 2.3295,-4.7426 3.1626,-6.8018 0.8332,-2.0591 1.8251,-3.5534 2.6249,-4.8848 1.5995,-2.6629 2.4301,-4.6745 2.3471,-6.7475 -0.0415,-1.0365 -0.3114,-2.0884 -0.5322,-3.3571 -0.4358,-2.5047 -0.6801,-5.8547 0.1085,-8.3781 1.9977,2.8914 4.1265,3.4226 6.2163,3.764 1.7465,0.2853 3.4658,0.4381 5.0153,0.1282 1.5495,-0.3098 2.9293,-1.0825 3.8382,-3.116 0.909,-2.0336 1.3471,-5.3281 1.185,-8.145 -0.1621,-2.817 -0.9244,-5.1564 0.968,-8.0444 0,3.3493 0.4081,4.661 0.9597,5.5518 0.5979,0.9656 1.3644,1.4366 1.8889,2.238 0.5245,0.8014 0.807,1.9332 1.2958,2.6019 0.4889,0.6686 1.1842,0.8741 1.8924,0.9634 0.7082,0.0894 1.4294,0.0627 2.7247,-0.6451 1.2954,-0.7078 3.1651,-2.0966 4.5005,-3.6191 1.3355,-1.5224 2.1367,-3.1784 2.6576,-4.6473 0.5208,-1.469 0.7612,-2.7511 1.2954,-3.2452 0.5341,-0.4941 1.3621,-0.2003 1.923,-0.6544 0.5609,-0.454 0.8547,-1.6559 0.4274,-2.7109 -0.4274,-1.055 -1.5759,-1.9632 -1.8096,-3.579 -0.2337,-1.6159 0.4474,-3.9396 0.7391,-7.3907 1.7696,2.5488 1.2255,3.6864 1.8438,4.6344 0.6182,0.948 2.3988,1.7064 3.9321,1.8548 1.5333,0.1484 2.8193,-0.3133 4.2866,-1.5168 1.4674,-1.2036 3.1161,-3.1491 4.534,-4.7153 1.4179,-1.5663 2.605,-2.7534 2.6874,-4.2043 0.0824,-1.4508 -0.9397,-3.1655 -2.5555,-4.7977 -1.6158,-1.6322 -3.825,-3.182 -5.045,-4.3361 -1.2201,-1.1541 -1.4509,-1.9125 -2.5885,-3.4952 -1.1376,-1.5828 -3.182,-3.9899 -5.5726,-5.6881 -2.3907,-1.6981 -5.1276,-2.6874 -7.2544,-3.4293 -2.1268,-0.7419 -3.6436,-1.2365 -3.6601,-1.5663 -0.0165,-0.3297 1.4674,-0.4946 2.1763,-0.7254 0.7089,-0.2308 0.643,-0.5276 -0.0494,-1.7311 -0.6925,-1.2036 -2.0115,-3.314 -3.5777,-5.0946 -1.5663,-1.7805 -3.3799,-3.2314 -4.9791,-4.6658 -1.5993,-1.4344 -2.9842,-2.8523 -4.1466,-2.9182 -1.1623,-0.066 -2.102,1.22 -2.6602,1.5592 -0.9438,0.5734 -1.8341,-1.8997 -2.4771,-4.3232 -0.643,-2.4237 -1.0387,-4.7978 -2.9512,-7.5676 -1.9125,-2.7698 -5.3418,-5.9354 -7.9303,-7.5181 -2.5885,-1.5828 -4.3361,-1.5828 -6.941,0.2803 -2.605,1.863 -6.0673,5.5891 -9.3482,8.8535 -3.2809,3.2644 -6.3805,6.0673 -9.4801,9.8263 -3.0996,3.7591 -6.1991,8.4744 -10.2879,12.3818 -4.0888,3.9075 -9.1668,7.007 -12.7116,10.0242 -3.5447,3.0171 -5.5561,5.9518 -6.2815,8.4578 -0.7254,2.506 -0.1649,4.5834 0.676,6.3475 0.8408,1.7642 1.9619,3.215 3.469,4.5283 1.507,1.3133 3.3999,2.4891 4.9954,3.3474 1.5955,0.8583 2.8935,1.3992 4.0981,1.7541 1.2045,0.355 2.3155,0.524 2.881,-0.2728 0.3887,-0.5475 0.5198,-1.5513 0.5487,-2.6873 0.0289,-1.1359 -0.0442,-2.404 1.3504,-5.1619 z"
       stroke="#000000"
       stroke-width="0"
       fill="#ffff00"
       fill-opacity="1"
       id="path97"
       style="display:inline;mix-blend-mode:normal;fill:#edc745;fill-opacity:1;filter:url(#filter168)" />
  </g>
  <g
     inkscape:groupmode="layer"
     id="layer2"
     inkscape:label="Disk Glow"
     style="display:inline"
     transform="translate(-137.33993,-15.982257)">
    <path
       d="m 244.30612,399.99338 189.2,-189.2 c 2.2959,-2.814 8.0886,-2.814 10.3845,0 l 198.2084,198.2083 c 2.814,2.296 2.814,8.0887 0,10.3846 l -14.8495,14.8495 -156.7228,156.7228 v 1.3331 c 0.007,0.5262 -0.2255,1.0874 -0.6025,1.4546 l -7.6915,7.6915 c -0.3671,0.3771 -0.9284,0.6095 -1.4546,0.6025 h -23.9575 c -0.5263,0.007 -1.0875,-0.2254 -1.4547,-0.6025 l -191.0598,-191.0599 c -2.814,-2.2959 -2.814,-8.0886 0,-10.3845 z m 201.9433,-165.5437 -6.6385,6.6384 5.2514,5.2514 6.6385,-6.6384 z m 76.8772,111.4517 -104.0932,-104.0932 -143.7125,143.7125 104.0932,104.0932 c 1.5636,1.9164 5.5086,1.9164 7.0722,0 l 136.6403,-136.6403 c 1.9164,-1.5636 1.9164,-5.5086 0,-7.0722 z m -255.1642,66.8353 5.2514,5.2514 6.6384,-6.6385 -5.2514,-5.2514 z m 261.812,-14.9551 -2.7953,-0.7638 -95.9143,95.9143 c -1.9125,1.5604 -1.9125,5.4974 0,7.0578 l 59.7929,59.7929 100.923,-100.923 -59.7929,-59.793 c -0.6012,-0.6059 -1.3891,-1.0633 -2.2134,-1.2852 z"
       stroke="#000000"
       stroke-width="0"
       fill="#ffffb4"
       fill-opacity="1"
       id="path39"
       style="mix-blend-mode:normal;fill:#ffe29e;fill-opacity:1;filter:url(#filter124)" />
    <path
       d="m 467.93332,460.26688 c 1.745,-2.1387 6.1478,-2.1387 7.8928,0 l 45.0286,45.0286 c 2.1387,1.745 2.1387,6.1478 0,7.8928 l -20.8779,20.8778 c -1.745,2.1388 -6.1477,2.1388 -7.8928,0 l -45.0285,-45.0285 c -2.1388,-1.745 -2.1388,-6.1478 0,-7.8928 z"
       stroke="#000000"
       stroke-width="0"
       fill="#ffffb4"
       fill-opacity="1"
       id="path40"
       style="display:inline;mix-blend-mode:normal;fill:#ffe29e;fill-opacity:1;filter:url(#filter125)" />
  </g>
  <g
     inkscape:groupmode="layer"
     id="layer6"
     inkscape:label="Disk"
     style="display:inline"
     transform="translate(-137.33993,-15.982257)">
    <path
       id="path41"
       d="m 438.69884,210.72884 c -1.45565,0 -2.91193,0.50624 -3.73828,1.51904 L 245.76134,401.44857 c -2.0256,1.6527 -2.0256,5.8224 0,7.47509 l 191.05957,191.05957 h 23.95752 l 7.69043,-7.69189 v -2.18555 l 9.73242,-9.73095 145.08106,-145.08106 -63.76172,-63.76025 c -1.0923,-1.3389 -3.84862,-1.3389 -4.94092,0 l -24.26367,24.26367 c 1.2518,0.3387 2.33688,1.02024 3.12598,1.81494 l 61.24804,61.24805 -103.83252,103.83252 -61.24804,-61.24805 c -2.7008,-2.2037 -2.7008,-7.7632 0,-9.9668 l 93.86572,-93.86572 28.59228,-28.59228 c 2.2037,-2.7009 7.7632,-2.7009 9.9668,0 l 63.76026,63.76171 14.85058,-14.85058 c 2.0256,-1.6527 2.0256,-5.8224 0,-7.4751 L 442.43566,212.24788 c -0.82635,-1.0128 -2.28117,-1.51904 -3.73682,-1.51904 z m 7.55127,20.81104 8.15918,8.16064 -9.54639,9.54785 -8.16064,-8.16064 z m -27.2168,7.35937 105.54786,105.54785 c 2.70469,2.2068 2.70469,7.77465 0,9.98145 L 387.94054,491.06917 c -2.2068,2.7047 -7.77465,2.7047 -9.98144,0 L 272.41124,385.52132 Z m -144.43212,164.28955 8.16064,8.16065 -9.54785,9.54785 -8.16065,-8.16065 z m 197.27783,57.52002 c -0.97045,0 -1.9408,0.33696 -2.4917,1.01221 l -20.87695,20.87842 c -1.3504,1.10179 -1.3504,3.8815 0,4.98339 l 45.02783,45.0293 c 1.1018,1.3504 3.8816,1.3504 4.9834,0 l 20.87841,-20.87842 c 1.3504,-1.1019 1.3504,-3.8816 0,-4.9834 l -45.02783,-45.02929 c -0.5509,-0.67525 -1.52271,-1.01221 -2.49316,-1.01221 z"
       style="display:inline;mix-blend-mode:normal;fill:#000000;fill-opacity:1;filter:url(#filter105)" />
  </g>
</svg>
